<?xml version="1.0" encoding="UTF-8"?>
<svg version="1.1" viewBox="0 0 1600 1421" width="1280" height="1280" xmlns="http://www.w3.org/2000/svg">
<path transform="translate(0)" d="m0 0h1600v1421h-1600z" fill="#FDFDFD"/>
<path transform="translate(1118,119)" d="m0 0h12l17 4 20 7 15 6 12 5 11 5 9 4 20 9 16 8 9 4 4 1-5-4v-5l11-9 10-7 16-8 15-5 17-3h18l15 2 23 8 15 8 10 7 12 11 9 11 8 13 6 14 5 16 1 6v32l-3 18 16 10 21 14 19 13 17 13 7 6 5 6v2l-5-2-4-4-5-3-4-3v-2l-5-2-8-7-13-9-10-7-21-14-10-7h-2l-9 19-7 10-9 11-10 9-14 10-12 6-3 5-3 9-7 17-8 14-10 13-3 5 24-9 15-4 26-4h39l22 4 12 4 4 6v9l-4 9 8 1 12 4 10 9 2 5v7l-4 10-6 8-8 7-14 7-14 4-19 3h-36l-8 12h2l18-2h10l12 2 15 6 13 7 12 9 12 11 8 10 6 12 2 6v8l-6 9-10 5-3 1h-18l-13-3-11-5-10-6-12-12-1-2-4 1-11 14-8 8-6 4-1 5 1 17v12l-1 8-3 3 2 1-1 13-4 23-8 27-7 17-9 15-8 10-5 4-2 1v9l5 29 2 18v11l2 5 7 58 3 35 2 43v57l-2 36-4 29-6 29-8 26-5 12-8 16-8 13-9 12-11 12-11 9-15 10-7 5-22 5-26 4h-29l-24-4-24-8-15-8-15-9-3-2v9l3 24 5 23 5 15 7 14 7 9 8 6 5 3-4 1-11-8-8-10-7-15-6-18-4-20-3-25-2-33v-33l2-44 3-27 6-31 7-23 7-19 8-16 10-15 4-2 2 1 2-6h2l1-8 5-17 1-6-18-2-12 2-9 4-8 6-11 11-12 17-8 14-8 21-5 19-3 21v31l2 23-2-1-2-12-1-11v-25l3-25 5-19 7-19 9-17 8-13h2l2-4 6-7h2v-2l-6-2-23-12-18-12-13-10-13-12-11-11-9-11-13-17-8-10-9-10-16-16-8-6-2-1v-2l-10-5v-2l-5-2-19-9-10-4-17-4-9-1h-16l-14 2-16 5-16 8-8 5 3 11 2 11v15l-3 15-5 13-6 10-9 10-8 7-14 8-13 4-6 1h-19l-17-4-15-8-10-7-9-11-6-9-5-11-4-16v-25l1-9-10-9-16-12-7-5-7-4-17-10-17-8-11-4-20-5-16-2-19 1-19 5-16 7-14 9-11 9-9 10-10 15-8 16-7 18-8 29-7 37-7 53-3 29-1 1 3 3 11 24 3 9-3 6 6 1-1 4-1 2 9-4 9-5 4-11 3-12 2-2 4 1-3-8 1-6 9-20 9-17 10-14 10-11 10-7 7-2h8l10 5 5 7 4 17 2 19v24l-3 28-5 23-3 6-2 9-5 13-2 6 8 16 9 24 6 24 5 33 3 35 1 1 7-16 5-15 5-23 4-34 4-44 5-28 4-14 7-20 8-16 3-5 1 2-10 21-6 16-6 24-4 27-6 62-4 22-7 24-9 21-2 7-2 38-3 25-5 24-3 8-1-2 6-28 3-23 2-30v-30l-4-40-5-27-6-22-7-19-7-14-2-1-2 5-6 11-7 10-10 16-3 7-1 9 7 45 2 28v23l-1 27-3 25-5 25-7 21-8 16-9 14-11 12-10 8-13 8-15 6-18 4h-23l-6-2 2-1 9 1h12l18-3 19-7 15-9 11-9 1-2h2l2-4 9-12 9-17 6-17 5-18 4-26v-9l-7 3-21 6-26 5-12 1h-24l-19-2-25-5-27-9-21-11-7-5v-5l-6-2-9-7-8-10-16-8-16-12-8-8-11-14-7-10-9-15-12-23-2-5v-3h-2l-11-27-5-1 9-6 10-9 7-10 11-17-2-9-4-15-3-20-1-10v-17h1l3 32 4 21 7 20 7 13 7 8 8 4 9 1 8-4 10-10 9-16 4-11 4-14 2-15 1-23-2-20-3-17-2-8 1-4 5 20 3 26v17l-2 20-5 21v2l35-14 22-9h3l-13-13-7-10-8-14-10-25-5-18-4-21-1-9-13-1-20-6-15-8-10-8-4-4 10-8 5-11 1-3v-12l-4-11-6-8 11-2 12-1h18l21 3 20 5 16 8 13 9v2l5 2 10 14 8 14 11 23 7 17 6 19 6 27 2-4 7-56 6-35 9-37 4-12 6-13 9-17 7-10 9-10 7-7 13-9 14-8 16-6 15-3h23l18 3 19 6 19 8 18 10 15 10 16 12 13 12 7 6v2h2l5 5h2l14-29 7-19 5-18 1-7-8 6-3 1h-13l-9-4-7-8-5-10-17-5-13-8-10-8-9-10-8-14-3-10v-14l4-8 3-4 11-4h6l-6-7v-2h-2l-7-14-5-13-1-12-3-5-3-8-1-5v-23l4-15 5-12 8-11 8-7 7-3h11l3 3v2l10-8 15-10 21-11 25-10 17-5 17-3 11-1h17l15 2 17 5 14 8 8 7 3 6v15l-2 5 18-4h10l9 3 4 2v2l4 2 2 4h2l4 9 14 57-1 8-2 6-6 9-9 11-13 17-6 5-9 4-35 9-9-1-12-6h-9l-8 5-8 10-5 4-8 3-42 11-11 2-12-1-8-4-9-8-5-9-14-7-20-7-5-1h-13l-8 3-6 7-1 3v14l3 10 7 12 12 13 10 7 16 8 11 2 4 10 7 8 7 4 4 1h8l7-3 5-7 3-8 7 4 13 8 16 7 14 4 7 1h27l-4 41v10l4-1v-2l11-7 15-9 11-5 14-4 7-1h28l16 3 15 5 19 9 15 10 10 8 12 11 12 12 6 8 3 3v2h2l4 6v2h2l1 4h2l4 6 2 4h2l6 8 10 11 8 7 12 10 16 11 15 9 19 10 4-1 8-6 10-5 7-2h17l10 2 2-10 23-68 9-31 3-4-1-7 7-46 1-9-6-2-5-4-8-7-10-10-11-15-11-19-9-19-11-27-12-36-8-28-1-10-2-4-5-30-3-36v-38l2-23 4-19 6-9 6-2 10 1 12 6 12 11 10 13 12 19 7 16 6 15v2h3l2-13 6-18 11-25 13-24 14-23 4-6h4l3-9 11-13 6-7v-4l-16-9-8-6-10-8-9-11-7-10-7-15-1-6h-2l-5-11-2-16v-14l1-16 6-10 5-6 4-13 1-7 4-6 7-2 6-1-1-5-5-1-16-8-30-14-28-11-21-6h-9l-4 2 2 6 7 8 13 13 16 12 7 6-2 1-19-13-10-8-13-11-12-9-10-9-8-9z" fill="#FABFB9"/>
<path transform="translate(571,739)" d="m0 0 18 1 19 4 10 3 12 5 17 8 16 10 11 7 18 14 9 8-1 9v25l4 16 8 16 8 10 3 3v2l4 2 13 8 11 5 14 3h19l16-4 14-7 9-7 8-8 7-11 5-12 3-11 1-7v-15l-3-15-2-7 9-6 16-8 16-5 14-2h16l14 2 15 4 11 5 20 10v2l4 1 6 4v2l5 2 13 12 16 16 11 14 12 16 13 15 14 14 11 9 17 12 19 11 18 9v2l-5 5-5 6h-2l-2 5-9 15-8 17-7 22-3 15-2 19v25l2 19 1 4-2-22v-31l4-25 6-21 7-17 10-17 11-14 13-13 11-6 7-2 12-1 11 2 3 1-1 9-6 22h-2l-2 6-5 1-10 15-8 16-8 21-6 21-6 31-3 27-2 44v33l2 33 4 31 5 21 8 20 6 10 6 7 9 6h3l-10-6-8-9-6-10-6-15-5-19-4-25-1-10v-10l14 8 18 10 19 7 17 4 14 2h29l36-6 7-2h4l-2 5-12 16-12 14-12 11-15 11-19 11-16 7-19 6-20 4-14-1-16-4-16-6-19-9-18-11-12-8-14-10-17-13-11-9-14-12-10-9-8-7-16-15-23-23-3 1-15 30-11 18-13 17-14 15-14 13-9 7-19 14-15 9-21 11-24 10-24 8-26 6-19 3-24 2h-19l-30-3-27-5-26-7-20-7-5-3h-3l6-33 2-19 2-38 3-9 8-19 7-24 4-22 6-62 4-27 6-24 10-25 4-9-8 16-8 22-5 22-4 27-4 45-4 29-5 21-6 17-6 13-2-3-4-43-5-30-6-22-8-21-8-17 6-15 3-9v-4h2l4-18 3-17 2-21v-24l-3-24-3-12-4-6-10-5h-8l-9 3-11 9-10 12-10 16-12 25-3 8 1 6 2 6-5-1-3 7-3 12-3 6-12 6-6 2 2-6-6-1 2-7-9-21-5-11v-2l-3-1 1-1 5-46 6-42 6-31 8-29 10-25 8-14 9-12 11-12 14-10 14-8 16-6 13-3z" fill="#F1EDFE"/>
<path transform="translate(1118,119)" d="m0 0h12l17 4 20 7 15 6 12 5 11 5 9 4 20 9 16 8 9 4 4 1-5-4v-5l11-9 10-7 16-8 15-5 17-3h18l15 2 23 8 15 8 10 7 12 11 9 11 8 13 6 14 5 16 1 6v32l-3 18 16 10 21 14 19 13 17 13 7 6 5 6v2l-5-2-4-4-5-3-4-3v-2l-5-2-8-7-13-9-10-7-21-14-10-7h-2l-9 19-7 10-9 11-10 9-14 10-12 6-3 5-3 9-7 17-8 14-10 13-3 5 24-9 15-4 26-4h39l22 4 12 4 4 6v9l-4 9 8 1 12 4 10 9 2 5v7l-4 10-6 8-8 7-14 7-14 4-19 3h-36l-8 12h2l18-2h10l12 2 15 6 13 7 12 9 12 11 8 10 6 12 2 6v8l-6 9-10 5-3 1h-18l-13-3-11-5-10-6-12-12-1-2-4 1-11 14-8 8-6 4-1 5 1 17v12l-1 8-3 3-8 2h-19l-32-5-28-7-33-11-14-6h-2l14 27 8 21 5 17v4h-2l-7-24-8-19-13-26-12-18-10-13-11-13-6-7-2-1-1-29-8 7-12 9-20 12-17 9-16 6-4 1h-8l-5-32-3-36v-38l2-23 4-19 6-9 6-2 10 1 12 6 12 11 10 13 12 19 7 16 6 15v2h3l2-13 6-18 11-25 13-24 14-23 4-6h4l3-9 11-13 6-7v-4l-16-9-8-6-10-8-9-11-7-10-7-15-1-6h-2l-5-11-2-16v-14l1-16 6-10 5-6 4-13 1-7 4-6 7-2 6-1-1-5-5-1-16-8-30-14-28-11-21-6h-9l-4 2 2 6 7 8 13 13 16 12 7 6-2 1-19-13-10-8-13-11-12-9-10-9-8-9z" fill="#FABFBA"/>
<path transform="translate(935,993)" d="m0 0 4 4 10 19 8 19 6 21 2 15v33l-2 17-3 15 2-1 2-6h2v-2l5-3 3-8h7l8-3 27-2 14-3 15-4 9-2 10-1 9-3 15 1 10 1h8l1 2-1 7 13-1 1 3v7h2l3 9 1 19v21l2 33 4 31 5 21 8 20 6 10 6 7 9 6h3l-10-6-8-9-6-10-6-15-5-19-4-25-1-10v-10l14 8 18 10 19 7 17 4 14 2h29l36-6 7-2h4l-2 5-12 16-12 14-12 11-15 11-19 11-16 7-19 6-20 4-14-1-16-4-16-6-19-9-18-11-12-8-14-10-17-13-11-9-14-12-10-9-8-7-16-15-23-23-3 1-15 30-11 18-13 17-14 15-14 13-9 7-19 14-15 9-21 11-24 10-24 8-26 6-19 3-24 2h-19l-30-3-27-5-26-7-20-7-5-3h-3l6-33 2-19 2-38 3-9 8-19 7-24 4-22 5-53h1v13l-2 24v14l2-1 3-11 9-1 20-2 14 1 13-3 14-1 16-3 25 1 15 2 11 2 7 1 31 1 28-1 31-3 7-1 11-1h22l10-1 7-1 13-4 12-3 3-1-1 5h11l1 2-3 7 6 2 7 1 2-2 2 4v8l-5 19h2l7-28 2-15v-40l-3-17-7-21-9-20-8-15z" fill="#C9B4FE"/>
<path transform="translate(168,645)" d="m0 0h18l14 4 9 5 10 9 6 7 1 2 31-3 22-1 14 1 20 4 9 5 13 5 13 8 11 8 11 12 8 12 7 8 11 19 12 28 8 30 3 17v36l-1 26-1 11-2-2-9-19-11-18-6-8-4-2-5-5-14-8-13-6-22-5-16-2h-18l-20 2-2 1 6 7 4 11v12l-5 12-5 6-6 4 5 5 10 7 16 8 17 5 13 2 3 12 4 22 5 17 10 24 10 17 11 12 5 4v2l-60 24-1-3 5-21 2-20v-17l-3-26-1-4 3 20 1 19-2 26-4 16-3 10-8 16-6 8-9 9-7 3-9-1-8-4-8-9-8-15-7-22-4-25-1-14 1 17 3 20 4 15 2 9-9 14-9 13-8 8-9 6h-3v2h-7l-7-4-7-11-5-16-9 9-9 6-15 5-7-1-5-4-3-8v-15l3-17 4-13 8-18 9-14 8-11-1-6-7-8-5-10-5-14-8-16-4-14-3-10-2-13-2-29v-27l2-16 6-27 5-16 5-9 6-7v-2l-12-7-8-7-7-10-5-11-3-10-1-7-13-4-12-5-8-6 1-4 8-2h25l5-1 6-12 6-7 11-8 11-5z" fill="#FEFDDC"/>
<path transform="translate(571,739)" d="m0 0 18 1 19 4 10 3 12 5 17 8 16 10 11 7 18 14 9 8-1 9v25l4 16 8 16 8 10 3 3v2l4 2 13 8 11 5 14 3h19l16-4 14-7 9-7 8-8 7-11 5-12 3-11 1-7v-15l-3-15-2-7 9-6 16-8 16-5 14-2h16l14 2 15 4 11 5 20 10v2l4 1 6 4v2l5 2 13 12 16 16 11 14 12 16 13 15 14 14 11 9 17 12 19 11 18 9v2l-5 5-5 6h-2l-2 5-9 15-8 17-2 4h-2l2-14 1-4v-14l-3-5-7-5-10-2-11-1-10 1h-17l1-2 5-2h3l-1-2h-10l-6-1 4-2 10-4 10-2h26l11 4h4l-5-3-11-2-15-4-6-2-48-4-30-2-4-1h-13l-6-1h-21l-19 2-14 3-30 7-14 3-11 2-25 3-10-1-8 1-16 1-30-1-16-1-15-3-17-3-13-3-15-4-12-3-12-2-2-1-14-1-5-1-29-1 3-3 4-2 1-1h-12l-18 6-5 3h-9l-2 1 1 15v26l-1 12-2 9h-1l-1-15-1-3-3-24-3-12-4-6-10-5h-8l-9 3-11 9-10 12-10 16-12 25-3 8 1 6 2 6-5-1-3 7-3 12-3 6-12 6-6 2 2-6-6-1 2-7-9-21-5-11v-2l-3-1 1-1 5-46 6-42 6-31 8-29 10-25 8-14 9-12 11-12 14-10 14-8 16-6 13-3z" fill="#FDFDFD"/>
<path transform="translate(542,910)" d="m0 0h8l10 5 5 7 4 17 2 19v24l-3 28-5 23-3 6-2 9-5 13-2 6 8 16 9 24 6 24 5 33 3 35 1 1 7-16 5-15 5-23 4-34 4-44 5-28 4-14 7-20 8-16 3-5 1 2-10 21-6 16-6 24-4 27-6 62-4 22-7 24-9 21-2 7-2 38-3 25-5 24-3 8-1-2 6-28 3-23 2-30v-30l-4-40-5-27-6-22-7-19-7-14-2-1-2 5-6 11-7 10-10 16-3 7-1 9 7 45 2 28v23l-1 27-3 25-5 25-7 21-8 16-9 14-11 12-10 8-13 8-15 6-18 4h-23l-6-2 2-1 9 1h12l18-3 19-7 15-9 11-9 1-2h2l2-4 9-12 9-17 6-17 5-18 4-26v-9l-7 3-21 6-26 5-12 1h-24l-19-2-25-5-27-9-21-11-7-5v-5l-6-2-9-7-8-10-16-8-16-12-8-8-11-14-7-10-9-15-12-23-2-5v-3h-2l-11-27-5-1 9-6 10-9 7-10 11-17-2-9-4-15-3-20-1-10v-17h1l3 32 4 21 7 20 7 13 7 8 8 4 9 1 8-4 10-10 9-16 4-11 4-14 2-15 1-23-2-20-3-17-2-8 1-4 5 20 3 26v17l-2 20-5 21v2l35-14 22-9h3l-13-13-7-10-8-14-10-25-5-18-3-18v-5l2 4 5 25 6 19 7 16 8 15 9 11v2l4 2 6 6 6-1 31-13 17-9 8-8 3 3 12 27 1 4-3 6 6 1-1 4-1 2 9-4 9-5 4-11 3-12 2-2 4 1-3-8 1-6 9-20 9-17 10-14 10-11 10-7z" fill="#FABFB9"/>
<path transform="translate(799,459)" d="m0 0h17l15 2 17 5 14 8 8 7 3 6v15l-2 5 18-4h10l9 3 4 2v2l4 2 2 4h2l4 9 14 57-1 8-2 6-6 9-9 11-13 17-6 5-9 4-35 9-9-1-12-6h-9l-8 5-8 10-5 4-8 3-42 11-11 2-12-1-8-4-9-8-5-9-14-7-20-7-5-1h-13l-8 3-6 7-1 3v14l3 10 7 12 12 13 10 7 16 8 11 2 4 10 7 8 7 4 4 1h8l7-3 5-7 3-8 7 4 13 8 16 7 14 4 7 1h27l-2 2-7 1h-17l-16-3-19-7-14-8-8-6-1 5-4 6-6 5-3 1h-13l-9-4-7-8-5-10-17-5-13-8-10-8-9-10-8-14-3-10v-14l4-8 3-4 11-4h6l-6-7v-2h-2l-7-14-5-13-1-12-3-5-3-8-1-5v-23l4-15 5-12 8-11 8-7 7-3h11l3 3v2l10-8 15-10 21-11 25-10 17-5 17-3z" fill="#FD659D"/>
<path transform="translate(1118,119)" d="m0 0h12l17 4 20 7 15 6 12 5 11 5 9 4 20 9 16 8 9 4 4 1-5-4v-5l11-9 10-7 16-8 15-5 17-3h18l15 2 23 8 15 8 10 7 12 11 9 11 8 13 6 14 5 16 1 6v32l-3 18 16 10 21 14 19 13 17 13 7 6 5 6v2l-5-2-4-4-5-3-4-3v-2l-5-2-8-7-13-9-10-7-21-14-10-7h-2l-9 19-7 10-9 11-10 9-14 10-12 6-3 5-3 9-7 17-8 14-10 13-9 10-10 8-4 3-3 22-6 22-8 19-9 17-10 14-10 10-4 3h-2l1-3 9-7 8-10 10-16 9-19 7-21 4-20 1-10-18-10-13-9-11-10-7-11-3-9 2-6 11-13 6-7v-4l-16-9-8-6-10-8-9-11-7-10-7-15-1-6h-2l-5-11-2-16v-14l1-16 6-10 5-6 4-13 1-7 4-6 7-2 6-1-1-5-5-1-16-8-30-14-28-11-21-6h-9l-4 2 2 6 7 8 13 13 16 12 7 6-2 1-19-13-10-8-13-11-12-9-10-9-8-9z" fill="#81D3EF"/>
<path transform="translate(919,983)" d="m0 0 7 1 3 2 6 2 2 9 8 15 10 23 6 20 2 13v40l-3 20-6 21-1 2h-2l1-8 3-11v-7l-2-3-4 1-10-4 2-8h-11v-4l-4 1-14 3-10 3-18 2h-20l-14 1-15 2-20 2-39 1-20-1-15-2-18-3-25-1-18 3-17 2-10 2-15-1-17 2h-9l-2 11-3 1-1-4v-10l2-24 1-22 4-27 6-24 9-23 4 1 10-9 5-7h3l2 7 5 1 5-1h8l6-2h10l2 1h25l60 2h26l5-1 26-1 51-4 22-3 5-1z" fill="#E4DBFE"/>
<path transform="translate(310,290)" d="m0 0 18 12 16 11 18 13 22 15v2l-5-2-8-5v-2l-5-2-34-24-8-5v-2l-5-2-2-1 7 8 12 15 4 4 8 11 4 4 8 10 6 7 9 11 5 6v2h2l4 6 8 10 18 5 63 16 10 2-23-16-17-12-16-11 1-3 11 8 16 11 17 12 13 9 7 5-4 17-20 69-23 80-6 21-3 9-4-1-19-13-20-14-17-12-14-10-4-2v-2l-5-2-15-11-19-13-18-13-16-11-8-5v-2l-5-2-9-6v-2l-4-2-8-6 1-8 6-22 5-15 6-21 6-20 4-14 5-18 15-49 8-26z" fill="#224044"/>
<path transform="translate(962,133)" d="m0 0h2l4 7 9 14v2l3-1 7-8 7-6 11-5 7-2h11l13 4 9 5 9 8 7 11 4 11 1 3v9l-5 15-6 10-9 9-10 6-7 2h-5l6 12 6 8 2 5-11 46-5 19-21 13-26 16-48 30-23 14-3-3-11-17-13-21-14-22-13-21-12-19-9-15 4-19 10-42 2-5 19-12 7-5 11-6 17-11 20-12 19-12 21-13z" fill="#A1E6F3"/>
<path transform="translate(1222,520)" d="m0 0h1v30l4 2 7 8 11 13 13 18 9 15 14 28 8 22 3 12v3h2l-6-21-6-16-12-25-4-8 5 1 26 10 26 8 27 6 26 4h19l7-1 3 1-1 13-4 23-8 27-7 17-9 15-8 10-5 4-2 1v9l2 12h-2l-2 4-8 5-13 4-17 3-10 1h-31l-22-3-16-5-8-4-5-6 2-16-6-2-5-4-8-7-10-10-11-15-11-19-9-19-11-27-12-36-8-28-1-10v-2l16-4 18-8 18-10 18-12 8-7h2l1-3z" fill="#FABEB9"/>
<path transform="translate(935,993)" d="m0 0 4 4 10 19 8 19 6 21 2 15v33l-2 17-3 15 2-1 2-6h2v-2l5-3 3-8h7l8-3 27-2 14-3 15-4 9-2 10-1 9-3 15 1 10 1h8l1 2-1 7 13-1 1 3v7h2l3 9 1 19v21l2 33 4 31 5 21 8 20 6 10 6 7 9 6h3l-10-6-8-9-6-10-6-15-5-19-4-25-1-10v-10l14 8 18 10 19 7 17 4 14 2h29l36-6 7-2h4l-2 5-12 16-12 14-12 11-15 11-19 11-16 7-19 6-20 4-14-1-16-4-16-6-19-9-18-11-12-8-14-10-17-13-11-9-14-12-10-9-8-7-16-15-23-23-3-1 3-10 6-19 3-15 1-9v-40l-3-17-7-21-9-20-8-15z" fill="#C9B4FE"/>
<path transform="translate(277,907)" d="m0 0h17 2l5 1 2 2 6 1 3-1 1-2 4 1 5 5 9 6 2-3 4 22 5 17 10 24 10 17 11 12 5 4v2l-60 24-1-3 5-21 2-20v-17l-3-26-1-4 3 20 1 19-2 26-4 16-3 10-8 16-6 8-9 9-7 3-9-1-8-4-8-9-8-15-7-22-4-25-1-14 1 17 3 20 4 15 2 9-9 14-9 13-8 8-9 6h-3v2h-7l-7-4-7-11-5-16-9 9-9 6-15 5-7-1-5-4-3-8v-15l3-17 4-13 8-18 9-14 10-13 5-5 11-7 7-1v2h2l2-5 3-1 2-5 8-8 10-6 8-3h14l2-1 1-7 7-11 8-7 5-2z" fill="#FCD0AF"/>
<path transform="translate(1167,918)" d="m0 0 12 1 6 2-1 9-6 22h-2l-2 6-5 1-10 15-8 16-8 21-6 21-6 31-3 27-2 44h-1l-2-10-1-1v-5h-2l-1-10-8 2-5-1v-8h-9l-13-1-11-1-9 3-13 1-12 4-16 4-17 2-17 1-10 3h-5l-2 7-3 3h-3v2l-2 2-2 5h-2l1-9 2-12 1-11v-33l-3-19-5-17-9-21 1-4v-7l-3-8 1-4 1-1h15l5-2 22-3 10-2 17-1 6-1h15l17-1 10-2h11l5 3 1 2h7l1 1 2 23-1 3h2l-2 18-1 11v25l2 19 1 4-2-22v-31l4-25 6-21 7-17 10-17 11-14 13-13 11-6 7-2z" fill="#E4DBFE"/>
<path transform="translate(333,1237)" d="m0 0 10 6 19 10 27 9 25 5 19 2h24l17-2 26-5 22-7 2-1v10l-5 30-6 21-8 18-9 15-8 10h-2l-1 3-14 11-14 8-17 6-18 3h-12l-12-1-1-2-13-5-14-8-10-9-6-7-8-13-7-18-5-22-2-19v-47z" fill="#C9B4FE"/>
<path transform="translate(1147,406)" d="m0 0 10 1 12 6 12 11 10 13 12 19 7 16 6 15 8 29 2 16 22 12 19 9 32 13 28 10 25 8 24 6 13 2h10l7-2 1 16v12l-1 8-3 3-8 2h-19l-32-5-28-7-33-11-14-6h-2l14 27 8 21 5 17v4h-2l-7-24-8-19-13-26-12-18-10-13-11-13-6-7-2-1-1-29-8 7-12 9-20 12-17 9-16 6-4 1h-8l-5-32-3-36v-38l2-23 4-19 6-9z" fill="#0F3137"/>
<path transform="translate(659,641)" d="m0 0h13l14 4 15 6 10 5 7 11 8 7 7 3 12 1 18-4 39-10 8-5 9-11 8-5h9l12 6 9 1 7-1 6 2 7 16 3 9 1 6v19l-7 19-8 11-9 8-14 8-11 4h-27l-15-3-16-6-15-8-10-7-6 12-6 5-4 1h-8l-7-3-6-4-6-7-3-6v-4h-7l-13-5-13-8-12-11-9-12-4-8-2-8v-14l3-6 7-6z" fill="#FABEBA"/>
<path transform="translate(882,513)" d="m0 0h14l8 3 9 9 5 16 9 37-1 13-7 10-8 5-25 7-9 2h-15l-12-3h-11l-9 6-8 8-12 6-35 9-11 1-7-2-9-6-5-7-8-29-5-21v-9l2-6 3-6 9-7 9-3 90-23 20-5 15-4z" fill="#0E3137"/>
<path transform="translate(749,729)" d="m0 0 4 2 11 7 14 7 16 5 12 2h17l8-1v12l-3 28v13l12-9 2 3 4 16v21l-4 15-7 14-8 11-10 9-8 5-11 5-11 3-6 1h-13l-15-3-12-5-13-9-12-12-8-13-5-12-3-17v-13l2-12h2v2l3 1v2h2l7 8 4-5 13-27 7-19 5-18 1-10z" fill="#FABFBA"/>
<path transform="translate(1312,203)" d="m0 0 6 2 17 10 11 6 6 4 10 4 40 24v3h2l2 3 1 10-1 4v26l3 9 2 7-3 6-4 5h-2l-2 4-8 7-1 2-5 3 1 2-5 3-6 16-8 18-10 16-11 12-4 5-10 8-4 3-3 22-6 22-8 19-9 17-10 14-10 10-4 3h-2l1-3 9-7 8-10 10-16 9-19 7-21 4-20 1-10-18-10-13-9-11-10-7-11-3-9 2-6 11-13 8-9 8 1 17 4 10 1v-2l-10-2-11-3-1-2 2-4h4l1-5-1-3v-36l-1-5v-14l1-10-1-9 1-5v-12l-2-4v-9l-1-3 1-9-1-8z" fill="#81D3F0"/>
<path transform="translate(548,1070)" d="m0 0 3 1 7 14 7 19 6 22 5 27 4 40v30l-2 30-3 23-6 28-2 9-8 19-9 17-8 10-13 13-12 9-10 6-15 6-14 4-13 2h-12l-20-2-26-6v-1l21-1 18-4 15-6 10-6 9-7 10-9 9-12 9-16 6-15 6-21 5-31 1-11 1-27v-23l-2-28-7-46 2-11 6-11 10-15 7-11z" fill="#C9B4FE"/>
<path transform="translate(255,758)" d="m0 0h10l17 3 16 8 10 9 10 10 10 14 6 12v10l2 1-11-1-10-1h-18l-20 2-2 1 6 7 4 11v12l-5 12-5 6-6 4 5 5 10 7 16 8 17 5 13 2 2 9v7l-12-7-3-3v-2l-4-1-1 3-5 1-5-1-2-2-4-1h-3-16l-11 1-8 5-5 6-6 10v6l-7 1-4-4-8-7-13-12-7-9-7-20-4-17-2-13v-9l2-21 6-18 11-18 12-17 13-8 12-5z" fill="#FEFEB8"/>
<path transform="translate(1259,176)" d="m0 0 6 2 19 9 16 9 12 6 1 6-1 7 1 7-1 6 1 7 1 6 1 3v12l-1 7 1 10-1 12v12l1 1v36l1 4-2 4-5 2v3l14 4 7 1 2 3-4 1-18-3-10-3h-6l-1-3-16-9-8-6-10-8-9-11-7-10-7-15-1-6h-2l-5-11-2-16v-14l1-16 6-10 5-6 4-13 1-7 4-6 7-2 6-1z" fill="#BAF7E4"/>
<path transform="translate(332,912)" d="m0 0 2 4 5 25 6 19 7 16 8 15 9 11v2l4 2 6 6 6-1 31-13 17-9 8-8 3 3 12 27 1 4-6 10-7 7-10 6-23 10-76 31-42 17-38 15-15 4h-12l-10-23-1-3-5-1 9-6 10-9 7-10 11-17-2-9-4-15-3-20-1-10v-17h1l3 32 4 21 7 20 7 13 7 8 8 4 9 1 8-4 10-10 9-16 4-11 4-14 2-15 1-23-2-20-3-17-2-8 1-4 5 20 3 26v17l-2 20-5 21v2l35-14 22-9h3l-13-13-7-10-8-14-10-25-5-18-3-18z" fill="#103238"/>
<path transform="translate(489,422)" d="m0 0h2l-1 7-3 10-6 21-8 26-4 15-7 23-7 26-8 28-5 18-4 12-3 2-6-7-10-13v-2h-2l-8-10v-2l-3-1-1-4h-2l-11-14-12-15v-2h-2l-11-14v-2h-2l-2-5-3-1-2-5-3-1v-4l20-12 15-10 14-9 5-2 25 125 1 4-2-12-20-102-2-10v-8l15-9 46-30z" fill="#FBFAFD"/>
<path transform="translate(168,645)" d="m0 0h18l14 4 9 5 10 9 6 7 5 10 3 9v12l10 3 18 7 6 5v4l-4 2-13 1-21-1-37-5-40-8h-5l4 3 7 4 5 5 4 9 3 5 3 17 10 2v2l-2 1h-14l-9-3-13-8-8-7-7-10-5-11-3-10-1-7-13-4-12-5-8-6 1-4 8-2h25l5-1 6-12 6-7 11-8 11-5z" fill="#B3FEC9"/>
<path transform="translate(604,972)" d="m0 0 17 1 5 3 1 2v6l-3 8-1 13 1 4-7 19-5 22-4 27-4 45-4 29-5 21-6 17-6 13-2-3-4-43-5-30-6-22-8-21-8-17 6-15 3-9v-4h2l1-5 2 2 5-10 3-12 2-6 5-19 3-7 14-8z" fill="#E4DAFE"/>
<path transform="translate(1129,1191)" d="m0 0 14 8 18 10 19 7 17 4 14 2h29l36-6 7-2h4l-2 5-12 16-12 14-12 11-15 11-19 11-16 7-19 6-11 2v-2l-10-6-8-9-6-10-6-15-5-19-4-25-1-10z" fill="#C9B4FE"/>
<path transform="translate(946,200)" d="m0 0 4 2 12 20 24 38 9 15v2l-9 5-12 8-7 4-14 9-7 4-24 15-4 1-7-12-5-7-4-7-6-9-4-7-7-11-11-18-3-5 9-6 26-16 24-15z" fill="#FCFCFD"/>
<path transform="translate(542,910)" d="m0 0h8l10 5 5 7 4 17 2 19v24l-3 28-5 23-2 5-10 1-12-3-16-8-13-9-14-14-8-13-2-5 1-6 9-20 9-17 10-14 10-11 10-7z" fill="#0F3137"/>
<path transform="translate(1118,119)" d="m0 0h12l17 4 20 7 15 6 12 5 11 5 9 4 20 9 16 8 9 4 15 8 23 11 2 1v2l6 2 17 9 6 3v2l6 2 14 7 3 3 22 12 22 13 4-1 1-7 2-10v-12l2-15 2-5 2-9 3-11-1-6-4-7v-2h-2v-2h-2l-5-6-14-9-12-5 4-1 16 7 16 10 13 12 9 11 8 13 6 14 5 16 1 6v32l-3 18 16 10 21 14 19 13 17 13 7 6 5 6v2l-5-2-4-4-5-3-4-3v-2l-5-2-8-7-13-9-10-7-21-14-10-7h-2l-9 19-7 10-9 11-10 9-14 10-7 3-3-1 3-3h3l1-3 8-7 2-3h2l2-4 3-5 1-3-4-10-1-5v-26l1-5-1-9-1-3h-2v-3l-5-2-25-15-16-9-7-3-6-4-8-4-21-12-16-8-14-8-42-20-15-7-19-9-28-11-21-6h-9l-4 2 2 6 7 8 13 13 16 12 7 6-2 1-19-13-10-8-13-11-12-9-10-9-8-9z" fill="#70C8E9"/>
<path transform="translate(297,822)" d="m0 0h18l21 3 20 5 16 8 10 7 2 3-2 12-8 17-8 10-8 8-12 7-6 2-9 1-14-1-20-6-15-8-10-8-4-4 10-8 5-11 1-3v-12l-4-11-6-8 11-2z" fill="#95B69E"/>
<path transform="translate(198,961)" d="m0 0 1 2-2 6h-2v7l-2 1-4 15-3 26-1 10 3-3 5-6 7-3 8-1 7 2 8 6 5 7 3 7v15l-3 16-4 8-8 8 1 2-5 1v2h-7l-7-4-7-11-5-16-9 9-9 6-15 5-7-1-5-4-3-8v-15l3-17 4-13 8-18 9-14 10-13 5-5 11-7 7-1v2h2z" fill="#FABFBA"/>
<path transform="translate(317,298)" d="m0 0 5 2 2 1v2l5 2 17 12 23 16 2 1v2l5 2 8 5 1-11 3-7 8-7 13-5 3-1h8l12 3 6 4 6 8 4 10v14l-5 13-8 7-4 1-2 4 4 2 12 8 17 12 20 14 4 4-11-2-71-18-10-3-11-13-1-4h-2l-11-14v-2l-3-1-2-5-3-1-11-14v-2l-3-1-9-12v-2l-4-2-8-10-9-10z" fill="#FEFEA7"/>
<path transform="translate(383,846)" d="m0 0 2 1v2l5 2 10 14 8 14 7 15-4 11-6 21-14 29-6 10-4 7-11 14-5 7-4 1-9-16-7-15-6-18-4-17-2-12-3-5v-6l-4-1 14-1 12-5 9-7 7-7 7-11 6-13 2-12z" fill="#FCD1AF"/>
<path transform="translate(1229,761)" d="m0 0 8 6 13 5 14 3 16 2h31l22-3 15-4 10-5 3-3h2l3 16 2 18v9l-8 6-14 5-23 4-10 1h-37l-26-4-14-4-10-5-3-4 1-13z" fill="#0F3137"/>
<path transform="translate(309,297)" d="m0 0 3 1 3 21 21 108-1 4-20 13-17 11-22 14-18 12h-3l3-12 15-50 21-72z" fill="#FBFBFD"/>
<path transform="translate(499,1140)" d="m0 0h1v14l-4 17-8 17-8 10-9 10-13 11-15 9-18 8-19 5-15 2h-18l-19-3-20-6-12-7-9-10-1-3h19l13-2 15-5 11-5 12 3 9 1h10l16-3 14-5 15-8 12-9 14-12 13-13 9-11z" fill="#0F3238"/>
<path transform="translate(718,564)" d="m0 0h2l2 19 11 43 5 12 9 8 6 3 5 1h12l123-31 22-6 4-1v3l-9 11-6 8-14 7-32 8h-8l-16-7h-8l-3 2h-3l-1 3h-2l-2 5-7 8-9 4-43 11-8 2h-11l-11-4-7-6-4-7-3-7-5-19-5-21-2-9v-13l5-10z" fill="#FAF9FD"/>
<path transform="translate(1378,348)" d="m0 0h2l-2 10-9 21-9 15-9 11-8 9-10 8-4 3-3 22-6 22-8 19-9 17-10 14-10 10-4 3h-2l1-3 9-7 8-10 10-16 9-19 7-21 4-20 1-10-18-10-13-9-11-10-7-11-3-9 2-6 11-13 8-9 8 1 17 4 8 1h19l18-3z" fill="#0F3137"/>
<path transform="translate(994,278)" d="m0 0 4 1 12 20 9 14-1 4-12 8h-3v2l-9 5-16 10-30 19-7 4-14 9-8 5-7 4-4 3h-3l4-18 9-40 2-4 20-12 19-12 18-11 16-10z" fill="#FBFBFD"/>
<path transform="translate(959,137)" d="m0 0h2l-1 8-12 51-5 5-7 4-19 12-26 16-19 12h-3l-7-12-11-17v-3h-2l-2-6 9-6 23-14 19-12 21-13 19-12z" fill="#FBFBFD"/>
<path transform="translate(867,249)" d="m0 0 4 1 12 19 13 21 16 25 5 8v8l-8 33-4 20-3 1-3-5v-2h-2l-4-7-6-10-8-13-7-11-5-7-4-7-30-48-1-4 21-13z" fill="#FCFBFD"/>
<path transform="translate(1312,203)" d="m0 0 6 2 17 10 11 6 8 5 1 7-3 2v8l-1 1-1 9 1 13-2 14 1 1v5h-2v46l-2 8-3 1 1 3 3 3h3v2l5 1v2h5l1 2-14 2h-17v-3l-10-2-11-3-1-2 2-4h4l1-5-1-3v-36l-1-5v-14l1-10-1-9 1-5v-12l-2-4v-9l-1-3 1-9-1-8z" fill="#A1E6F3"/>
<path transform="translate(391,396)" d="m0 0 3 1 14 72-1 5-25 16-17 11-9 6h-3l-2-8-13-66 2-4 22-14 23-15z" fill="#FBFBFD"/>
<path transform="translate(886,505)" d="m0 0h15l11 6 4 4v2h2l5 12 12 48v13l-3 8-7 9-12 6-55 14-79 20-7 2h-15l-9-4-8-7-4-7-3-8-6-26-4-14-1-5v-17l6-10 8-7 15-5 122-31zm-4 8-17 4-18 5-67 17-32 8-10 6-4 4-3 6-1 5v9l11 44 4 9 5 6 8 5 12 1 25-6 17-5 10-5 9-9 8-5h11l12 3h15l28-7 12-5 6-7 3-5 1-13-12-48-3-6-8-8-8-3z" fill="#F5F3FB"/>
<path transform="translate(230,936)" d="m0 0h10l4 1-3 22-1 3v30l3 25 4 17 3 9-1 4-8 13-9 13-8 8-5 4-4-1 8-8 4-8 3-16v-15l-5-10-5-6-7-4-6-1-10 2-6 4-4 6h-2v-10l3-26 4-15 3-1v-7h2l1-9 4-2 2-5 8-8 10-6z" fill="#FDD1AF"/>
<path transform="translate(1310,134)" d="m0 0 3 1-1 2 7-1h17l9 2 4 5-2 5-3 3-1 11-1 8 1 3v11h1l2 11 2 17 2 7-6-2-16-8v-2l-6-2-23-12v-2l-9-3-25-13v-2l-7-5v-5l11-9 10-7 16-8z" fill="#A1E7F3"/>
<path transform="translate(494,913)" d="m0 0h16l2 1-1 8-8 13-10 21-4 11-1 3v7l1 2-2 5 1 6 2 6-5-1-3 7-3 12-3 6-12 6-6 2 2-6-6-1 2-7-9-21-5-11v-2l-3-1 1-1 2-20h1l1 6 2-7 8-22 3-10 5-4 11-4 19-3z" fill="#F1EDFE"/>
<path transform="translate(414,894)" d="m0 0 3 4 9 21 6 19 6 27h2l1 13-1 1 2 2-9 9-21 11-30 12-4-1-12-12-4-6 5-5 13-17 6-10 12-23 6-13 8-28z" fill="#FABFBA"/>
<path transform="translate(962,133)" d="m0 0h2l4 7 10 16-1 2-7-10-6-9-2-1-1 10-11 47 1 5 8 13 6 9v3h2l6 11 4 5 4 7 15 24v3l7-5 11-6 16-10 5-2-14-23h3l3 4 5 9 4 5 2 5-11 46-5 19-21 13-26 16-48 30-23 14-3-3-11-17-13-21-14-22-13-21-12-19-9-15 4-19 10-42 2-5 19-12 7-5 11-6 17-11 20-12 19-12 21-13zm-3 4-21 13-48 30-21 13-15 9-7 5 2 6h2l1 4 10 16 7 12 5-1 22-14 26-16 17-11 8-5 4-15 10-42v-4zm-13 63-24 15-42 26-9 6 8 14 4 5 4 7 7 11 6 9 4 7 7 11 7 12 6-2 19-12 7-5 11-6 10-7 11-6 5-4 8-4-2-5-8-14-11-17-25-40zm-79 49-19 12-16 10 1 4 7 11 20 32 6 9 4 7 7 11 6 9 4 7 8 13 2 4h2l2 5 2 2 2-1 7-33 5-20v-8l-10-16-16-25-13-21-7-11zm127 29-9 6-63 39-4 4-4 19-9 38v2l4-1 7-5 8-4 19-12 8-5 21-13 14-9 13-8 4-2v-2l4-1 10-6 2-2-1-5-21-33z" fill="#2B464A"/>
<path transform="translate(312,296)" d="m0 0 4 2 6 10 4 4v2l3 1 8 10 13 16 12 15v2l3 1 8 10 14 17 5 7-4 4-12 8h-3v2l-21 13-12 8h-3l-6-34-5-23-5-26-8-42z" fill="#FBFAFD"/>
<path transform="translate(840,795)" d="m0 0 2 3 4 16v21l-4 15-7 14-8 11-10 9-8 5-11 5-11 3-6 1h-13l-15-3-12-5-13-9-12-12-8-13-5-12-3-17v-13l2-12h2v2l3 1v2h2l7 8 2 2v15l5 15 5 10 9 10 10 7 13 5 3 1h21l14-5 9-6 7-6 8-13 4-12 1-6v-20l-1-7 11-8z" fill="#FAF9FD"/>
<path transform="translate(1167,918)" d="m0 0 12 1 6 2-1 9-6 22h-2l-2 6-5 1-10 15-9 18-7 2h-6l-9-3-2-1h-9l-4-1-7 8-6 9-3-1v-8l7-19 8-16 11-16 11-12 7-7 11-6 7-2z" fill="#F1EDFE"/>
<path transform="translate(260,487)" d="m0 0 8 1 30 8 36 9 18 5 7 8 8 10 9 11 8 10 9 11 8 10 13 16 11 13 6 8-5-2-9-6-34-24-20-14-17-12-20-14-17-12-20-14-18-13-11-8z" fill="#FAF9FD"/>
<path transform="translate(962,138)" d="m0 0 4 2 10 16 1 6-4 11v16l3 10 6 11 7 7 10 6 7 3 15 2 12 19 2 5-20 12-9 6-7 4-3 1-3-6-10-16-6-9-4-7-6-9v-3h-2l-4-7-6-9-5-9-1-5 12-52z" fill="#FBFBFD"/>
<path transform="translate(669,502)" d="m0 0h11l3 3v2l5-4 2 1-5 6-5 3-6 4-7 8-8 14-5 16v13l4 9 5 5-15 8v2l5-4 10-4 15-3 5 1 4 3 11 4 1 1v7l-3 5-13 14-10 14-5 8-4-1-5-5v-2h-2l-7-14-5-13-1-12-3-5-3-8-1-5v-23l4-15 5-12 8-11 8-7z" fill="#FC669C"/>
<path transform="translate(257 1e3)" d="m0 0h10l12 5 8 6 7 8 4 9 11-3 7 1v2l2 1-3 10-8 16-6 8-9 9-7 3-9-1-8-4-8-9-8-15-7-22-2-11 1-4v3h2l1-5 4-4z" fill="#FABEBA"/>
<path transform="translate(334,433)" d="m0 0h3l5 25 9 46 1 4-8-1-43-11-44-11 2-4 24-15 23-15 20-13z" fill="#FBFAFD"/>
<path transform="translate(395,395)" d="m0 0 18 4 39 10 14 4 21 4 3 2v2l-6 3-7 5-7 4-10 7-7 4-24 16-7 4-11 7-2-2-3-16-11-56z" fill="#FBFAFD"/>
<path transform="translate(981,153)" d="m0 0 1 2h2v2l3 1 5 9 12 12 7 5 10 4 10 5 9 3 11 4 6 2-1 7-10 10-10 6-7 2h-5l-1 2-17-2-14-7-10-9-6-10-3-7-1-5v-16l4-11v-5l4-2z" fill="#C8B4FD"/>
<path transform="translate(317,298)" d="m0 0 5 2 2 1v2l5 2 17 12 23 16 2 1v2l5 2 8 6 2 12 6 10 7 6 9 4h10l11-3v3l4 2 12 8 17 12 20 14 4 4-11-2-71-18-10-3-11-13-1-4h-2l-11-14v-2l-3-1-2-5-3-1-11-14v-2l-3-1-9-12v-2l-4-2-8-10-9-10z" fill="#F9F8FC"/>
<path transform="translate(335,825)" d="m0 0 21 5 16 8 10 7 2 3-2 12-8 17-8 10-8 8-12 7-6 2-9 1-7-1 1-5 7-18 3-15 1-10-1-23-1-7z" fill="#4D5E5F"/>
<path transform="translate(190,980)" d="m0 0 1 4-3 15-3 29 3-3 5-6 7-3 8-1 7 2 8 6 5 7 3 7v15l-3 16-4 8-8 8 1 2-5 1v2h-7l-7-4-7-11-6-20-2-15v-26l3-20z" fill="#EC90AA"/>
<path transform="translate(1354,226)" d="m0 0 6 2 10 6 2 5-2 3v6h1v38l1 19v10l1 12-1 13 1 3 2 1v3h2v2l-12 4-10-1v-2l-9-3-4-2 1-5 3-2 1-6v-46l2-1-1-7 2-13-1-13 1-8 1-2v-7l3-2z" fill="#8AE0E9"/>
<path transform="translate(676,514)" d="m0 0v3l-7 8-8 14-4 10-2 10v7l3 8 6 5 2 1h7l7-1-1-5 4-10 9-8 12-7 10-4 3 1-16 8-11 7-5 5-3 7 1 7 10 5 7 1 5-7v3l-4 9v13l6 24 4 17 4 13 3 6 5 6 10 5 4 1h11l36-9 18-5 8-5 4-3-2 4-6 5-8 3-42 11-11 2-12-1-8-4-9-8-5-9-14-7-20-7-5-1h-13l-8 3-6 7-1 3v14l3 10 7 12 12 13 10 7 16 8 11 2 4 10 7 8 7 4 4 1h8l7-3 5-7 3-8 7 4 13 8 16 7 14 4 7 1h27l-2 2-7 1h-17l-16-3-19-7-14-8-8-6-1 5-4 6-6 5-3 1h-13l-9-4-7-8-5-10-17-5-13-8-10-8-9-10-8-14-3-10v-14l4-8 3-4 11-4 9-2 6-10 10-13 13-14 1-3v-7l-13-5-4-3-13 2-13 4-6 4-3 4v-5l9-6 7-3-6-7-3-7v-13l5-16 6-11 8-10z" fill="#113339"/>
<path transform="translate(562,738)" d="m0 0h23l18 3 19 6 19 8 18 10 15 10 16 12 13 12 7 6v2h2l5 5-1 4-5-5-2-4h-2l-3-3v-2h-2l-1 12v13l3 17 5 12 9 14 11 11 14 9 14 5 11 2h13l14-3 9-4 10-5 10-8 8-10 5-8 5-12 3-12v-21l-4-16-1-2-12 9-1-2 3-3h2v-2l11-7 15-9 11-5 14-4 7-1h28l16 3 15 5 19 9 15 10 10 8 12 11 12 12 6 8 3 3v2h2l4 6v2h2l1 4h2l4 6 2 4h2l6 8 10 11 8 7 12 10 16 11 15 9 19 10 4-1 8-6 10-5 7-2h17l9 3-1 2-6-2-12-1-12 2-9 4-8 6-11 11-12 17-8 14-8 21-5 19-3 21v31l2 23-2-1-2-12-1-11v-25l3-25 5-19 7-19 9-17 8-13h2l2-4 6-7h2v-2l-6-2-23-12-18-12-13-10-13-12-11-11-9-11-13-17-8-10-9-10-16-16-8-6-2-1v-2l-10-5v-2l-5-2-19-9-10-4-17-4-9-1h-16l-14 2-16 5-16 8-8 5 3 11 2 11v15l-3 15-5 13-6 10-9 10-8 7-14 8-13 4-6 1h-19l-17-4-15-8-10-7-9-11-6-9-5-11-4-16v-25l1-9-10-9-16-12-7-5-7-4-17-10-17-8-11-4-20-5-16-2-19 1-19 5-16 7-14 9-11 9-9 10-10 15-8 16-7 18-8 29-7 37-7 53-3 27h-1v-15l7-56 6-35 9-37 4-12 6-13 9-17 7-10 9-10 7-7 13-9 14-8 16-6z" fill="#3C5254"/>
<path transform="translate(1327,131)" d="m0 0h18l8 1v2l9 3 6 4 3 4 1 3v9l-3 8-1 15-1 4 2 18v8l1 5-2 7-3 3-1 2-5-1-11-6 1-2-3-11-2-17-2-4v-13l-1-7 2-13 1-5h2l2-5-3-4-11-2h-22l2-4z" fill="#8BE1E9"/>
<path transform="translate(265,821)" d="m0 0 6 1 4 3 6 8 4 11v12l-5 12-5 6-8 5-10-2-10-3-8-11-1-2 1-26 2-6 5-4 8-3z" fill="#FEFEA7"/>
<path transform="translate(97,680)" d="m0 0h22l7 1-1 2h-34l1 3 14 7 19 6 28 7 35 7 35 5 15 1h25l1-3-11-5-19-7v-2l9 2 18 7 6 5v4l-4 2-13 1-21-1-37-5-40-8h-5l4 3 7 4 5 5 4 9 3 5 3 17 10 2v2l-2 1h-14l-9-3-13-8-8-7-7-10-5-11-3-10-1-7-13-4-12-5-8-6 1-4z" fill="#8BE0E8"/>
<path transform="translate(145,708)" d="m0 0h7l40 8 37 5-1 7-11 14-9 7-12 6-13 3h-9v-1l9-1v-2l-7-1-3-1-2-6-2-11-8-16-7-5-8-3z" fill="#BAF7E4"/>
<path transform="translate(1300,137)" d="m0 0h3v2h2l1 4 1 3-1 25 2 4 1 11-1 7 3 1 2 4-6-1-8-4v-2l-9-3-25-13v-2l-7-5v-5l11-9 10-7 16-8z" fill="#BAF7E5"/>
<path transform="translate(148,1019)" d="m0 0h12l6 3 7 8 4 7v12l-6 12-11 12-8 4h-6l-5-4-3-8v-15l3-17 4-13z" fill="#EC92AB"/>
<path transform="translate(59,863)" d="m0 0 3 1 7 29 8 4 25 6v2l-24 7-6 3-3 3-7 23-2 6h-2l-2-8-3-14-4-9-8-4-24-6v-3l31-8 2-1 8-30z" fill="#B4FECB"/>
<path transform="translate(248,1030)" d="m0 0h50l1 1v19l-4 12-6 8h-2l1 4-9 1-9-4-8-7-8-14-6-16z" fill="#EC90AA"/>
<path transform="translate(669,502)" d="m0 0h11l3 3v2l5-4 2 1-5 6-5 3-6 4-7 8-8 14-5 16v13l4 9 5 5-15 8-2 6h-1l-2-6-4-8-2-9v-23l4-15 5-12 8-11 8-7z" fill="#FC699E"/>
<path transform="translate(1170,278)" d="m0 0h12l10 5 7 9 1 5v8l-6 10-8 7-3 1h-12l-8-5-7-8-2-5v-11l4-8 8-6z" fill="#8BE1E9"/>
<path transform="translate(139,660)" d="m0 0 3 1 3 10 6 8 2 4 8 10 4 4 7 10v3l-9-1-31-7-26-8-14-7-1-4 4-1h30l-3-2 5-1 6-12z" fill="#B9F6E3"/>
<path transform="translate(577,1114)" d="m0 0h3l1 6h9l5-2 2 2 2 17v8l1-6h1v7l-5 23-6 18-7 15-2-3-4-43-5-30-1-8 4-2z" fill="#C9B4FE"/>
<path transform="translate(548,1070)" d="m0 0 3 1 7 14 7 19 3 10 1 11-3-1-3-9-2-2v2l-10-1-3-3h-3v4l-8 4-3 5-3 6-4 1-2 2-4-8-1-4v12h-1l-1-8 2-9 6-11 10-15 7-11z" fill="#E3D9FE"/>
<path transform="translate(1167,918)" d="m0 0 12 1 6 2-1 9-6 21h-2v-2l-3-1-1-8-3-2h-15l-14 6h-2l3 4 9 2v1l-6 1 3 3-21 4-6 4h-2v-3l-3 1 1-5 8-11 9-10 8-8 11-6 7-2z" fill="#FBFAFE"/>
<path transform="translate(867,479)" d="m0 0 4 4 2 4v15l-2 5 18-4h10l9 3 4 2v2l4 2 2 4h2l4 9 14 57-1 8-2 6-6 9-9 11-13 17-6 5-9 4-35 9-9-1-12-6h-9l-8 5-5 5 2-5 4-5 6-3h8l16 7h8l35-9 11-6 13-17 2-3-30 8-79 20-40 10h-12l-9-3-8-6-5-6-5-13-10-40-1-6v-13l-2-1 8-12 9-8 14-5 64-16 47-12 9-3 2-7v-11l-4-8zm19 26-131 33-16 5-7 4-7 8-3 6v17l4 17 8 32 5 10 7 7 8 4 3 1h15l31-8 47-12 15-4 48-12 12-6 8-11 2-6v-13l-12-48-5-12h-2l-2-4-5-4-8-4z" fill="#2E484B"/>
<path transform="translate(855,656)" d="m0 0v3l-7 8 2 5 2 12-3 9-7 6-5 2h-9l-8-6-5-6v-9l-18 1 1-2 7-1h11l1-5 5-6 6-3h13l4 2 7-8z" fill="#6FC6E9"/>
<path transform="translate(890,772)" d="m0 0h28l16 3 15 5 19 9 15 10 10 8 12 11 12 12 6 8 3 3v2h2l4 6v2h2l1 4h2l4 6 2 4h2l6 8 10 11 8 7 12 10 16 11 15 9 19 10 4-1 8-6 10-5 7-2h17l9 3-1 2-6-2-12-1-12 2-9 4-8 6-11 11-12 17-8 14-8 21-5 19-3 21v31l2 23-2-1-2-12-1-11v-25l3-25 5-19 7-19 9-17 8-13h2l2-4 6-7h2v-2l-6-2-23-12-18-12-13-10-13-12-11-11-9-11-13-17-8-10-9-10-16-16-8-6-2-1v-2l-10-5v-2l-5-2-19-9-10-4-17-4-9-1h-16l-14 2-16 5-16 8-8 5-2 2-5 3-9 6 1-4 4-1v-2l11-7 15-9 11-5 14-4z" fill="#223F44"/>
<path transform="translate(412,662)" d="m0 0h11l8 5 4 8v10l-4 6-6 5-2 1h-11l-8-5-4-7v-11l4-7z" fill="#C9B4FE"/>
<path transform="translate(363,999)" d="m0 0 5 5 10 9v2l-60 24-1-3 4-15 12-6 16-10 9-5z" fill="#F9BEBA"/>
<path transform="translate(475,975)" d="m0 0 3 1 1 15 4 1 1-3 4 1 2 6-5-1-3 7-3 12-3 6-12 6-6 2 2-6-6-1 2-6 4 1v-14l-4-18 5-3 8-4z" fill="#E4DBFD"/>
<path transform="translate(1427,319)" d="m0 0 8 1 25 12 19 8 34 11h14l1-5-2-5-6-7 4 2 5 4 2 1-5-7 4 2 20 18 6 8-1 5-17-2-15-3-21-8-20-8-15-7-33-15-7-4z" fill="#FFFEDD"/>
<path transform="translate(1031,255)" d="m0 0 4 1-9 38-4 17h-3l-12-19-5-9-4-7 22-14z" fill="#F8F7FC"/>
<path transform="translate(1085,31)" d="m0 0 3 1 6 22v2l10 2 14 3-1 3-16 4-6 2-8 24h-2l-5-21v-3l-16-4-10-3v-2l21-5 4-2 5-16z" fill="#A2E7F3"/>
<path transform="translate(845,211)" d="m0 0h2l12 20 9 14-2 4-18 11-7 4-9 5 1-8 11-47z" fill="#F9F8FC"/>
<path transform="translate(287,363)" d="m0 0h2l-1 8-25 85-7 23-1 2 4 1-2 3 9 1 71 18 11 3h3l-5-23-7-37 2-4 11 56 1 8 9-5 4-2 1 2-10 6h-2l1 4 4 4 5 6v2h2l8 11 3 3v2h2l8 11 15 18v2h2l2 4 3 3 7 8v2h2l4 6 7 9-1 2-9-10-9-11-13-16-8-10-9-11-8-10-9-11-11-14-8-3-43-11-31-8-10-2 14 10 11 8-2 2-5-3v-2l-5-2-9-6v-2l-4-2-8-6 1-8 6-22 5-15 6-21 6-20 4-14 5-18z" fill="#244245"/>
<path transform="translate(310,290)" d="m0 0 18 12 16 11 18 13 22 15v2l-5-2-8-5v-2l-5-2-34-24-8-5v-2l-5-2-2-1-1 2-3-3 8 44 5 23 5 27 4 21 2 10v6l11-6 15-10 10-6 2 1-10 7-22 14-4 3 1 6v8l-2-3-1-9-8 4-23 15-25 16-17 11-6 2 4-4 19-12 54-35-2-13-20-103-2-16-2-1-2 10-17 57-2-1 3-12 17-56z" fill="#234044"/>
<path transform="translate(221,1021)" d="m0 0 9 1 8 2 6-1 6 20-1 4-8 13-9 13-8 8-5 4-4-1 8-8 4-8 3-16v-15l-5-10z" fill="#FABDB9"/>
<path transform="translate(635,985)" d="m0 0 1 2-10 21-6 16-6 24-4 27-6 62-4 22-7 24-9 21-2 7-2 38-3 25-5 24-3 8-1-2 6-28 3-23 2-30v-30l-4-40-5-27-6-22-7-19-7-14 1-4 8 16 9 24 6 24 5 33 3 35 1 1 7-16 5-15 5-23 4-34 4-44 5-28 4-14 7-20 8-16z" fill="#384F52"/>
<path transform="translate(184,715)" d="m0 0 21 3 24 3-1 7-11 14-9 7-12 6-7 1 3-2 7-3v-2h2v-9l-4-10-3-5v-3l-5-2-5-3z" fill="#B3FCC8"/>
<path transform="translate(1118,119)" d="m0 0h12l10 2v1h-9l27 9 5 4h-13l-4 2 2 6 7 8 13 13 16 12 7 6-2 1-19-13-10-8-13-11-12-9-10-9-8-9z" fill="#A3E8F2"/>
<path transform="translate(1174,168)" d="m0 0 4 2 17 12 13 10 13 9 8 5 3-4 4-10 9-14 4-5 2-2 8 4 2 5-4 2-8 1-4 4-2 7-3 13-4 6-6 8-2 4-1 16v14l1 16h-1l-2-14v-25l2-16v-7l-36-24-3-5-13-10z" fill="#FDFDDD"/>
<path transform="translate(317,300)" d="m0 0 7 6 12 15 4 4 8 11 4 4 8 10 6 7 9 11 5 6v2h2l4 6 8 10 18 5 63 16 12 2v2l-11-1-21-5-26-7-32-8-2-1 3 12 9 46 1 8h-2l-3-12-10-52-5 2-12 8-3-2 9-5 9-6-3-5-13-16-11-14-4-4-9-11-13-16-10-13-4-4v-2l-3-1-4-6z" fill="#284548"/>
<path transform="translate(1171,283)" d="m0 0 4 2 2 5 1 1 1 8 2 7v10l-4 3h-6v-2l-4-2-5-5-4-7 1-9 4-7z" fill="#A2E7F4"/>
<path transform="translate(97,680)" d="m0 0h22l7 1-1 2h-34l1 3 14 7 19 6 28 7 35 7 35 5 15 1h25l1-3-11-5-19-7v-2l9 2 18 7 6 5v4l-4 2-13 1-21-1-37-5-40-8-28-7-5-2-11-3-12-5-8-6 1-4z" fill="#234044"/>
<path transform="translate(695,793)" d="m0 0 4 2 11 10v2h2l5 5-1 4-5-5-2-4h-2l-3-3v-2h-2l-1 12v13l3 17 5 12 9 14 11 11 14 9 14 5 11 2h13l14-3 9-4 10-5 10-8 8-10 5-8 5-12 3-12v-21l-4-18h2l4 13 1 7v15l-3 15-5 13-6 10-9 10-8 7-14 8-13 4-6 1h-19l-17-4-15-8-10-7-9-11-6-9-5-11-4-16v-25l1-9-5-4z" fill="#3B5254"/>
<path transform="translate(665,638)" d="m0 0 3 1-1 2-12 2-6 4-4 5-1 3v14l3 10 7 12 12 13 10 7 16 8 11 2 4 10 7 8 7 4 4 1h8l7-3 5-7 3-8 7 4 13 8 16 7 14 4 7 1h27l-2 2-7 1h-17l-16-3-19-7-14-8-8-6-1 5-4 6-6 5-3 1h-13l-9-4-7-8-5-10-17-5-13-8-10-8-9-10-8-14-3-10v-14l4-8 3-4 11-4z" fill="#1E3C41"/>
<path transform="translate(956,137)" d="m0 0 2 1-10 7-20 12-17 11-26 16-24 15-13 8 1 6h2l6 11 7 10 5 9v2l8-4 19-12 26-16 16-10v3l-21 13-24 15-21 13 8 14 3 4-1 3-7-10-5-8v-2l-3-1-2-5-15-24-3-5v-3h-3l1-4 19-12 7-5 11-6 17-11 20-12 19-12z" fill="#1D3C40"/>
<path transform="translate(844,210)" d="m0 0 3 1h-2l-2 11-10 43v3l11-7 22-13 4 1-11 6-19 12-7 4 1 4 7 11 20 32 6 9 4 7 7 11 6 9 4 7 8 13 1 4h2l4 6h2v2l-4 1-11-17-13-21-14-22-13-21-12-19-9-15 4-19 10-42z" fill="#284548"/>
<path transform="translate(1170,278)" d="m0 0h12l10 5 7 9 1 5v8l-6 10-8 7-3 1h-10v-2l7-2 6-4 3-6v-8l-4-13-3-2v-2l-5-2-11 1v-3z" fill="#82D4EF"/>
<path transform="translate(453,443)" d="m0 0 3 1-10 7-25 16-8 5h-2l4 23 19 97 2 9v5l-2-2-8-38-17-87v-4l-16 10-20 13-5 3-2-1 11-8 18-11 12-8-1-12h2l3 9 14-9 18-11z" fill="#264347"/>
<path transform="translate(905,506)" d="m0 0 4 1 3 1v2l4 2 2 4h2l4 9 14 57-1 8-2 6-6 9-9 11-13 17-6 5-9 4-35 9-9-1-12-6h-9l-8 5-5 5 2-5 4-5 6-3h8l16 7h8l35-9 11-6 13-17 3-5 5-5 7-10 2-6v-13l-12-48-4-10v-2h-2l-5-6-6-3z" fill="#244145"/>
<path transform="translate(340,443)" d="m0 0 2 4 10 52 1 8 9-5 4-2 1 2-10 6h-2l1 4 4 4 5 6v2h2l8 11 3 3v2h2l8 11 15 18v2h2l2 4 3 3 7 8v2h2l4 6 7 9-1 2-9-10-9-11-13-16-8-10-9-11-8-10-9-11-11-14-6-3 4-2-5-23-7-37z" fill="#2C474A"/>
<path transform="translate(1160,917)" d="m0 0h17l9 3-1 2-6-2-12-1-12 2-9 4-8 6-11 11-12 17-8 14-8 21-5 19-3 21v31l2 23-2-1-2-12-1-11v-25l3-25 5-19 7-19 9-17 8-13h2l2-4 6-7h2v-3l11-8 10-5z" fill="#3A5053"/>
<path transform="translate(189,987)" d="m0 0 2 4-1 5 9 6 2 4h2l5 7 4 3-12 1-8 4-5 7h-2v-10l3-26z" fill="#F8BDBB"/>
<path transform="translate(285,507)" d="m0 0 4 1 20 14 17 12 20 14 51 36 19 13 8 6 6 3h3l3 3 3-2-1 7-4-1-19-13-20-14-17-12-14-10-4-2v-2l-5-2-15-11-19-13-18-13-16-11z" fill="#244145"/>
<path transform="translate(1444,275)" d="m0 0 39 26 19 13 17 13 7 6 5 6v2l-5-2-4-4-5-3-4-3v-2l-5-2-8-7-13-9-10-7-21-14-10-7h-3z" fill="#83D5EA"/>
<path transform="translate(962,133)" d="m0 0h2l4 7 10 16-1 2-7-10-6-9-2-1-1 10-11 47 1 5 8 13 6 9v3h2l6 11 4 5 4 7 15 24-1 3-4-5-11-18-14-22-16-26-2-3-5 2-4 2 1-4 6-3 4-15 11-46-3 1-1-2z" fill="#30494E"/>
<path transform="translate(676,514)" d="m0 0v3l-7 8-8 14-4 10-2 10v7l3 8 6 5 2 1h7l7-1-1-5 4-10 9-8 12-7 10-4 3 1-16 8-11 7-5 5-3 7 1 7 10 5 7 1 5-7v3l-5 10-4-3-11-4-4-3-13 2-13 4-6 4-3 4v-5l9-6 7-3-6-7-3-7v-13l5-16 6-11 8-10z" fill="#19393E"/>
<path transform="translate(1085,31)" d="m0 0 3 1 3 11v8h-5v2l-3 1-3 7 1 4 2 5-2 2-7-3-20-6v-2l21-5 4-2 5-16z" fill="#91E3E9"/>
<path transform="translate(1485,425)" d="m0 0 1 2-7 8-7 7-13 8-15 7-20 6-22 4-15 2-11 21-14 19-21 21-6 4-2-1 15-13 8-8 11-14 9-14 9-18 25-3 25-6 20-8 12-7 10-8z" fill="#2E484B"/>
<path transform="translate(526,1251)" d="m0 0 1 2-5 35-6 23-6 16-8 15-8 11-9 10-11 9-13 8-15 6-18 4h-23l-6-2 2-1 9 1h12l18-3 19-7 15-9 11-9 1-2h2l2-4 9-12 9-17 6-17 5-18 4-26 1-11z" fill="#354D50"/>
<path transform="translate(95,682)" d="m0 0h27l2 1-1 9-1 7-21-7-10-6v-3z" fill="#F6F3FC"/>
<path transform="translate(828,664)" d="m0 0h13l3 2-1 5-7 12-5-1-15-4 1-5 5-6z" fill="#70C6E9"/>
<path transform="translate(198,961)" d="m0 0 1 2-2 6h-2v7l-2 1-1 3h-2l-3 12h-2l-3-11-4-2-4-3v-4l14-9 7-1v2h2z" fill="#EFC3A9"/>
<path transform="translate(234,705)" d="m0 0 8 1 14 5 9 5-2 4h-25l-7-2z" fill="#FDFADA"/>
<path transform="translate(867,479)" d="m0 0 4 4 2 4v15l-2 5 18-4h10l7 2-2 2-3-1h-15l-131 33-16 5-7 4-6 7-3 6-1 5-4-3 8-12 9-8 14-5 64-16 47-12 9-3 2-7v-11l-4-8z" fill="#244145"/>
<path transform="translate(935,993)" d="m0 0 4 4 10 19 8 19 6 21 2 15v33l-2 17-5 21-6 17-3 2 3-10 6-19 3-15 1-9v-40l-3-17-7-21-9-20-8-15z" fill="#314A4D"/>
<path transform="translate(373,406)" d="m0 0 2 1-10 7-22 14-4 3 1 6v8l-2-3-1-9-8 4-23 15-25 16-17 11-6 2 4-4 19-12 54-35-2-13-1-9h2l3 14v6l11-6 15-10z" fill="#234044"/>
<path transform="translate(1125,1146)" d="m0 0h2l2 43 3 30 5 26 6 18 7 14 7 9 8 6 5 3-4 1-11-8-8-10-7-15-6-18-4-20-3-25-2-33z" fill="#374E51"/>
<path transform="translate(890,772)" d="m0 0h28l16 3 15 5 19 9 15 10 8 6-1 3-5-4-2-1v-2l-10-5v-2l-5-2-19-9-10-4-17-4-9-1h-16l-14 2-16 5-16 8-8 5-2 2-5 3-9 6 1-4 4-1v-2l11-7 15-9 11-5 14-4z" fill="#2B474A"/>
<path transform="translate(562,738)" d="m0 0h23l18 3 19 6 19 8 18 10 15 10 16 12 6 5-2 2-8-7-19-14-7-4-17-10-17-8-11-4-20-5-16-2-19 1-19 5-8 3-2-2 16-6z" fill="#314B4E"/>
<path transform="translate(883,266)" d="m0 0 3 4 14 22 6 9 5 9 5 8 2 5 14-8 16-10v3l-26 16-3 3-4 19-9 38h-1l1-11 9-38 1-4v-8l-10-16-16-25-8-13z" fill="#284347"/>
<path transform="translate(695,793)" d="m0 0 4 2 11 10v2h2l5 5-1 4-5-5-2-4h-2l-3-3v-2h-2l-1 12v13l3 17 5 12 9 14 11 11 14 9 12 5-4 1-16-8-12-8-9-11-6-9-5-11-4-16v-25l1-9-5-4z" fill="#2D484B"/>
<path transform="translate(1520,334)" d="m0 0 4 2 5 4 2 1-5-7 4 2 20 18 6 8-1 5-6-1-2-2 1-2-1-3-7-5-2-3h-7l-4-9-7-7z" fill="#BBF8E5"/>
<path transform="translate(748,726)" d="m0 0 7 4 13 8 16 7 14 4 7 1h27l-2 2-7 1h-17l-16-3-19-7-14-8-8-6-1 5-4 6-6 5-3 1h-13l-9-4v-1h5l7 3h8l7-3 5-7z" fill="#264246"/>
<path transform="translate(844,210)" d="m0 0 3 1h-2l-2 11-10 43v3l11-7 22-13 4 1-11 6-19 12-7 4 1 4 7 11 1 3h-3l-10-17 4-19 10-42z" fill="#284448"/>
<path transform="translate(190,980)" d="m0 0 1 4-3 15-2 19v18l3 22 6 18 6 8 2 2 9 2v1h-7l-7-4-7-11-6-20-2-15v-26l3-20z" fill="#203E42"/>
<path transform="translate(550,1067)" d="m0 0 4 5 9 21 7 21 5 22 4 28 2 24v7l-2-2-4-40-5-27-6-22-7-19-7-14z" fill="#485A5C"/>
<path transform="translate(250,1047)" d="m0 0 3 3 6 11v2l-21 8h-2l2-5 7-10z" fill="#F4BEC1"/>
<path transform="translate(311,295)" d="m0 0 2 1 7 40 6 28 5 27 3 17-3-1-18-93-2-16z" fill="#294448"/>
<path transform="translate(460,1027)" d="m0 0 3 1-16 10-14 11-11 9-16 15-13 14-11 15-9 14-1-3 7-11 9-12 11-13 19-19 22-18 18-12z" fill="#1B3A3F"/>
<path transform="translate(234,702)" d="m0 0 9 2 18 7 6 5v4l-4 2-13 1-21-1-21-3v-2l30 2h25l1-3-11-5-19-7z" fill="#234044"/>
<path transform="translate(1326,429)" d="m0 0 2 2-2 16-6 22-8 19-9 17-10 14-10 10-4 3h-2l1-3 9-7 8-10 10-16 9-19 7-21 4-20z" fill="#213F43"/>
<path transform="translate(1029,137)" d="m0 0 7 1 9 5 9 8 7 11 4 11v8l-10-20-9-11-5-4-11-7z" fill="#88D7EF"/>
<path transform="translate(124,708)" d="m0 0 6 12 8 14 3 3v2l5 2 10 7 12 6-4 1-7-2-12-7-8-7-7-10-5-11-1-3z" fill="#72C9E8"/>
<path transform="translate(938,203)" d="m0 0v3l-21 13-24 15-21 13 8 14 3 4-1 3-7-10-5-8v-2l-3-1 2-3 5-1 22-14 26-16z" fill="#1E3C41"/>
<path transform="translate(467,503)" d="m0 0h2l-1 8-21 73-6 21-2 3-1-2 7-26 7-23 7-26 7-23z" fill="#234145"/>
<path transform="translate(813,654)" d="m0 0v3l-7 6-8 3-42 11-11 2-12-1-8-4-9-8-2-3v-5l2 2 4 7 8 6 9 3h11l36-9 18-5 8-5z" fill="#274347"/>
<path transform="translate(239,975)" d="m0 0h1l3 32 4 21 7 20 3 6v2h-2l-4-8-2 3-9 14-4 4 1-4 11-18 1-4-5-16-3-16-2-19z" fill="#384F52"/>
<path transform="translate(674,663)" d="m0 0 10 2 12 5 10 6 10 8 7 6v3l-7 1-3 2v6l2 4 8 4 9 3v1l-9-1-8-4-4-5-1-2v-6l3-4 5-2-5-5-10-8-16-8-13-4z" fill="#254246"/>
<path transform="translate(275,903)" d="m0 0h16l20 4 2 1-1 3-5 1-5-1-2-2-4-1h-3-16l-11 1-1-2z" fill="#FFFFA7"/>
<path transform="translate(951,201)" d="m0 0 4 5 4 7 6 9v3h2l6 11 4 5 4 7 15 24-1 3-4-5-11-18-14-22-15-24z" fill="#284649"/>
<path transform="translate(905,506)" d="m0 0 4 1 3 1v2l4 2 2 4h2l4 9 14 57-1 8h-2l-2-18-11-43-4-10v-2h-2l-5-6-6-3z" fill="#445C5B"/>
<path transform="translate(1179,279)" d="m0 0h6l9 6 5 7 1 5v8l-5 8-2-1 1-7v-10l-1-4h-2l-3-5-9-6z" fill="#72CAE9"/>
<path transform="translate(1149,146)" d="m0 0 7 6 12 12 16 12 7 6-2 1-19-13-10-8-13-11 2-1z" fill="#BAF7E5"/>
<path transform="translate(714,545)" d="m0 0 3 1-16 8-11 7-5 5-3 7 1 7 10 5 7 1 5-7v3l-5 10-4-3-11-4-4-3-3-1v-2h2l-1-5 4-10 9-8 12-7z" fill="#19393E"/>
<path transform="translate(332,912)" d="m0 0 2 4 5 25 6 19 7 16 8 15 9 11v2l4 2 2 3h-3l-7-7-7-10-8-14-10-25-5-18-3-18z" fill="#3D5355"/>
<path transform="translate(453,1021)" d="m0 0 7 1-1 4-1 3-12 8-10 7h-2l2-5 4-1 1-3 2-1 3-5z" fill="#F6BDC1"/>
<path transform="translate(258,485)" d="m0 0 12 2 67 17 11 3-1 2-11-2-15-4-31-8-26-7h-5z" fill="#2D484B"/>
<path transform="translate(1265,600)" d="m0 0 3 1v3l13 25 8 21 5 17v4h-2l-7-24-8-19-13-26z" fill="#274347"/>
<path transform="translate(402,395)" d="m0 0 18 4 55 14 12 2v2l-11-1-21-5-26-7-28-7z" fill="#3A5153"/>
<path transform="translate(1385,467)" d="m0 0 4 1-4 4-8 16-9 13-8 10-19 19-6 4-2-1 15-13 8-8 11-14 9-14z" fill="#203E43"/>
<path transform="translate(1095,57)" d="m0 0 9 1 14 3-1 3-16 4h-6l1-5-1-1z" fill="#8FE2E9"/>
<path transform="translate(318,905)" d="m0 0h12l2 9v7l-12-7-3-3v-5z" fill="#FEFCD9"/>
<path transform="translate(972,345)" d="m0 0v3l-26 16-19 12-23 14-2-1v-3l7-2 7-5 8-4 19-12 8-5z" fill="#1E3D42"/>
<path transform="translate(855,656)" d="m0 0v3l-7 8-8 13-3 5-3 1-10-4-9-1h-18l1-2 7-1h14l12 3 5 2 2-6 8-12 6-7z" fill="#244145"/>
<path transform="translate(383,548)" d="m0 0h3l11 14 6 7v2h2l2 4 3 3 7 8v2h2l4 6 7 9-1 2-9-10-9-11-13-16-8-10-7-9z" fill="#244145"/>
<path transform="translate(429,373)" d="m0 0 11 7 34 24 13 9-2 2-23-16-17-12-16-11z" fill="#1F3D42"/>
<path transform="translate(1417,487)" d="m0 0 1 2-8 12-10 13-9 10-7 8-12 11-3 1 2-4 11-9 7-8 12-14 10-14z" fill="#203E43"/>
<path transform="translate(633,753)" d="m0 0 5 1 16 8 19 12 18 14 5 5h-3l-12-10-14-10-7-4-17-10-10-5z" fill="#244145"/>
<path transform="translate(720,565)" d="m0 0 2 1 2 17 4 14 6 26-1 3-2-3-10-40-1-6z" fill="#415758"/>
<path transform="translate(785,529)" d="m0 0h5l-3 2-43 11-9 4-7 6-5 9-1 5-4-3 8-12 9-8 14-5z" fill="#1C3B40"/>
<path transform="translate(130,676)" d="m0 0h1l2 16h-2v2l-6 2-2-2 1-11 1-1-3-2 7-1z" fill="#8FE1E6"/>
<path transform="translate(473,806)" d="m0 0 2 1-9 23-8 29-3 15-2 1 1-9 8-33 4-12 6-13z" fill="#314C4E"/>
<path transform="translate(665,638)" d="m0 0 3 1-1 2-12 2-6 4-4 5-1 3v14l3 10 1 3-3-1-4-12v-14l4-8 3-4 11-4z" fill="#213E43"/>
<path transform="translate(312,445)" d="m0 0v3l-20 13-17 11-13 8-4 1 4-4 19-12 17-11z" fill="#213F43"/>
<path transform="translate(695,793)" d="m0 0 4 2 11 10v2h2l5 5-1 4-5-5-2-4h-2l-3-3v-2h-2l-1 12v13l1 11-2 1-1-6v-25l1-9-5-4z" fill="#3D5456"/>
<path transform="translate(340,443)" d="m0 0 2 4 9 46v9l-2-3-10-52z" fill="#274347"/>
<path transform="translate(396,407)" d="m0 0h2l9 46 1 8h-2l-3-12-7-37z" fill="#294548"/>
<path transform="translate(956,137)" d="m0 0 2 1-10 7-20 12-17 11-7 4-2-1 10-7 18-11 21-13z" fill="#223F44"/>
<path transform="translate(1092,70)" d="m0 0h1l-1 8-5 16h-2l-2-10v-7h3l1-2h2v-2h2z" fill="#90E1EA"/>
<path transform="translate(1164,281)" d="m0 0h2v2l3 1-6 4-4 9v6h-3l-2 2v-11l4-8z" fill="#91E3EA"/>
<path transform="translate(1160,917)" d="m0 0h17l9 3-1 2-6-2-12-1-12 2-9 4-8 6-8 8-2-2 4-2v-3l11-8 10-5z" fill="#284347"/>
<path transform="translate(285,507)" d="m0 0 4 1 20 14 17 12 6 4-1 3-18-13-23-16z" fill="#1E3C41"/>
<path transform="translate(991,806)" d="m0 0 8 6 18 18 6 8 3 3 1 5-5-5-9-11-20-20-2-1z" fill="#224044"/>
<path transform="translate(163,709)" d="m0 0 10 1 27 5 8 1v3l-21-3-26-5z" fill="#244045"/>
<path transform="translate(317,300)" d="m0 0 7 6 12 15 4 4 8 11v2h-2l-11-14-7-9-4-4v-2l-3-1-4-6z" fill="#224044"/>
<path transform="translate(97,680)" d="m0 0h22l7 1-1 2h-34l1 3 8 5v2l-5-2-7-5 1-4z" fill="#364F51"/>
<path transform="translate(1326,429)" d="m0 0 2 2-2 16-6 22-4 10-2-2 7-21 4-20z" fill="#264246"/>
<path transform="translate(1229,273)" d="m0 0 2 2 2 7h2l5 13 7 13 11 13v3l-11-12-9-15-9-21z" fill="#FFFEDD"/>
<path transform="translate(1014,319)" d="m0 0 2 2-25 15-17 11-1-3 26-16 4-1v-2z" fill="#234145"/>
<path transform="translate(208,717)" d="m0 0 15 1 36 2v1l-30 1-21-3z" fill="#455E5F"/>
<path transform="translate(955,164)" d="m0 0h1l-1 9-5 22 1 9-3-3-5 2-4 2 1-4 6-3 4-15 4-17z" fill="#254246"/>
<path transform="translate(325,364)" d="m0 0h1l5 27 3 17-3-1-7-36z" fill="#2C484B"/>
<path transform="translate(1029,137)" d="m0 0 7 1 9 5 1 2-1 2h2l9 12-1 2-9-11-5-4-11-7z" fill="#8EE2E9"/>
<path transform="translate(550,1067)" d="m0 0 4 5 9 21 5 14v5l-2-2-7-20-6-13-3-6z" fill="#274247"/>
<path transform="translate(806,889)" d="m0 0 4 1-10 5-16 4h-19l-10-2v-2l13 2h13l14-3 9-4z" fill="#425759"/>
<path transform="translate(399,1077)" d="m0 0 2 1-7 8-10 13-11 17-1-3 7-11 9-12z" fill="#244145"/>
<path transform="translate(935,993)" d="m0 0 4 4 10 19 7 17v2h-2l-8-19-10-19z" fill="#203E42"/>
<path transform="translate(868,778)" d="m0 0 3 1-17 8-11 7-2 2-5 3-9 6 1-4 4-1v-2l11-7 15-9z" fill="#214044"/>
<path transform="translate(826,641)" d="m0 0h8l16 7 7 2v1l-9-1-12-6h-9l-8 5-5 5 2-5 4-5z" fill="#2F494C"/>
<path transform="translate(190,980)" d="m0 0 1 4-3 15-2 19-3 3 1-17 3-14z" fill="#2A4549"/>
<path transform="translate(674,663)" d="m0 0 10 2 12 5 10 6 8 6-2 2-11-8-16-8-11-3z" fill="#234045"/>
<path transform="translate(733,625)" d="m0 0 3 3 4 9 9 8 11 4 6 1v1h-8l-9-3-8-6-5-6-3-7z" fill="#294549"/>
<path transform="translate(883,354)" d="m0 0 3 4 6 9 4 7 1 4h2l4 6h2v2l-4 1-11-17-8-13z" fill="#345051"/>
<path transform="translate(1485,425)" d="m0 0 1 2-7 8-7 7-13 8-6 3-3-1 17-10 10-8z" fill="#1A393E"/>
<path transform="translate(976,241)" d="m0 0 3 4 8 13 5 7 4 7-1 3-4-5-11-18-5-9z" fill="#2B484B"/>
<path transform="translate(799,641)" d="m0 0 4 1-4 2-29 7-10-1v-1l16-2z" fill="#44585A"/>
<path transform="translate(928,550)" d="m0 0h2l8 32-1 8h-2l-2-18-5-19z" fill="#4E5F60"/>
<path transform="translate(480,462)" d="m0 0 1 4-11 38-2-1 4-17z" fill="#254246"/>
<path transform="translate(1514,324)" d="m0 0 5 3 7 6 5 6v2l-5-2-4-4-5-3-4-4h3z" fill="#94E5E8"/>
<path transform="translate(938,203)" d="m0 0v3l-21 13-14 9-1-3 22-13z" fill="#1E3D41"/>
<path transform="translate(452,1028)" d="m0 0 2 1-2 4-16 11h-2l2-5 4-1 1-3z" fill="#FAE6D7"/>
<path transform="translate(883,266)" d="m0 0 3 4 14 22 1 3h-3l-12-20-4-7z" fill="#345051"/>
<path transform="translate(850,213)" d="m0 0 3 4 10 16 6 11-2 1-12-19-5-8z" fill="#274447"/>
<path transform="translate(1145,1271)" d="m0 0 3 3 8 11 7 6 7 4-4 1-11-8-8-10-2-4z" fill="#203E42"/>
<path transform="translate(490,428)" d="m0 0 1 4-9 31-2-1 3-14 3-9 3-10z" fill="#2A474A"/>
<path transform="translate(899,295)" d="m0 0 4 2 9 14 7 12-2 2-9-15-9-14z" fill="#244245"/>
<path transform="translate(448,571)" d="m0 0h2l-2 10-7 24-2 3-1-2 7-26z" fill="#2E494C"/>
<path transform="translate(408,576)" d="m0 0 4 5 5 5v2h2l4 6 7 9-1 2-9-10-9-11-3-4z" fill="#2F4B4D"/>
<path transform="translate(453,408)" d="m0 0 11 2 14 4 9 1v2l-11-1-21-5-3-2z" fill="#3D5456"/>
<path transform="translate(1393,518)" d="m0 0h2l-2 4-11 12-10 9-3 1 2-4 11-9 7-8z" fill="#1E3C41"/>
<path transform="translate(1027,843)" d="m0 0 4 5 1 3h2l1 4h2l4 6 2 4h2l1 3h-3l-11-14-5-7z" fill="#314C4E"/>
<path transform="translate(633,753)" d="m0 0 5 1 16 8 13 8-4 1-13-8-17-9z" fill="#203E42"/>
<path transform="translate(100,691)" d="m0 0 25 8 7 2-4 2-9-3-11-3-8-4z" fill="#2A4649"/>
<path transform="translate(805,678)" d="m0 0h14l9 2-1 3-11-2h-19l1-2z" fill="#2C474A"/>
<path transform="translate(1284,642)" d="m0 0h2l7 21 1 8h-2l-7-24z" fill="#203E42"/>
<path transform="translate(360,561)" d="m0 0 6 1 21 15-2 2-17-12-5-4z" fill="#284548"/>
<path transform="translate(393,482)" d="m0 0 2 2-19 12-8 5-2-1 11-8z" fill="#203E42"/>
<path transform="translate(1045,868)" d="m0 0h2l14 16 7 6-2 2-18-18-3-4z" fill="#264246"/>
<path transform="translate(916,617)" d="m0 0 3 1-9 11-7 8-6 3-2-1 9-6z" fill="#213F43"/>
<path transform="translate(366,526)" d="m0 0 3 1 8 10 1 3h2l5 8-4-1-8-10-7-9z" fill="#284448"/>
<path transform="translate(1358,509)" d="m0 0h2l-2 4-17 17-6 4-2-1 15-13 8-8z" fill="#18383D"/>
<path transform="translate(453,443)" d="m0 0 3 1-10 7-16 10-2-1 11-8z" fill="#1C3B40"/>
<path transform="translate(1010,299)" d="m0 0 4 2 6 10 3-2-1 8-5 3-2-1 3-3-1-5-7-11z" fill="#1D3C40"/>
<path transform="translate(745,735)" d="m0 0 1 3-8 7-3 1h-13l-9-4v-1h5l7 3h8l7-3z" fill="#264347"/>
<path transform="translate(1489,401)" d="m0 0 3 4 1 9v7l2 4-8-1 1-4 2-5v-9z" fill="#FDFCDE"/>
<path transform="translate(319,500)" d="m0 0 18 4 11 3-1 2-11-2-15-4-4-2z" fill="#334E4F"/>
<path transform="translate(287,363)" d="m0 0h2l-1 8-6 20h-2l1-6 5-18z" fill="#2D4A4C"/>
<path transform="translate(412,310)" d="m0 0h9l14 5 1 2-16-4h-8l-7 1 4-3z" fill="#FFFEDD"/>
<path transform="translate(530,748)" d="m0 0 3 1-18 10-10 8-2-2 14-10z" fill="#1E3C41"/>
<path transform="translate(726,599)" d="m0 0 3 3 5 21-1 3-2-3-5-20z" fill="#365051"/>
<path transform="translate(956,1132)" d="m0 0h2l-1 7-4 12h-2l1-8 3-10z" fill="#DDD0FE"/>
<path transform="translate(705,579)" d="m0 0v3l-5 10-4-3-11-4 1-2 11 3 4-1z" fill="#274347"/>
<path transform="translate(971,290)" d="m0 0 3 1-5 4-18 11-2 1 1-4 11-6z" fill="#274448"/>
<path transform="translate(962,134)" d="m0 0h2l10 15 4 7-1 2-7-10-6-9v-2l-3-1z" fill="#1E3C41"/>
<path transform="translate(1127,938)" d="m0 0h2l-2 4-12 17-2 3-2-1 9-15h2l2-4z" fill="#264347"/>
<path transform="translate(665,638)" d="m0 0 3 1-1 2-12 2-9 6v-3l2-3 11-4z" fill="#294548"/>
<path transform="translate(479,1365)" d="m0 0 2 1-7 6-13 8-5 1 3-3 15-9z" fill="#223F43"/>
<path transform="translate(727,881)" d="m0 0 5 2 13 8 10 4-4 1-16-8-8-5z" fill="#2C464A"/>
<path transform="translate(1021,228)" d="m0 0 4 2 7 12 4 5v2h-3l-12-20z" fill="#2B484A"/>
<path transform="translate(430,605)" d="m0 0 3 1 3 3 3-2-1 7-4-1-8-6z" fill="#1F3E42"/>
<path transform="translate(714,545)" d="m0 0 3 1-22 11v-3l14-7z" fill="#1F3D42"/>
<path transform="translate(265,494)" d="m0 0h5l13 10 3 3h-3l-4-2v-2l-5-2-9-6z" fill="#2E494C"/>
<path transform="translate(348,337)" d="m0 0h2l8 11 4 5v2h-2l-9-11-4-6z" fill="#2A4549"/>
<path transform="translate(1119,120)" d="m0 0h17l4 2h-9l7 2v1l-9-1-10-3z" fill="#8ADCEC"/>
<path transform="translate(766,738)" d="m0 0 6 2 15 6 1 2-7-1-14-6z" fill="#254145"/>
<path transform="translate(732,545)" d="m0 0 2 1-8 9-3 6-1 5-4-3 8-12z" fill="#13343A"/>
<path transform="translate(474,429)" d="m0 0 3 1-5 4-15 10-3-2 12-7z" fill="#2C494B"/>
<path transform="translate(310,290)" d="m0 0 12 8-2 2-3-2-1 2-3-4-5 2 1-6z" fill="#1C3B40"/>
<path transform="translate(1034,249)" d="m0 0 4 2-2 3-10 5-10 6-1-2 15-9 5-2z" fill="#1C3B40"/>
<path transform="translate(1131,125)" d="m0 0 6 1 1 5-1 2-5-1-2-1v-5z" fill="#BBF8E5"/>
<path transform="translate(465,938)" d="m0 0h5l1 3-11 5-3 1 2-4z" fill="#FEFEFE"/>
<path transform="translate(234,702)" d="m0 0 9 2 11 4-1 3-19-7z" fill="#345051"/>
<path transform="translate(922,522)" d="m0 0 2 3 5 21-1 4-4-14-3-9z" fill="#4B5F5F"/>
<path transform="translate(260,455)" d="m0 0h2l-1 8-5 16-2-2z" fill="#2D494B"/>
<path transform="translate(858,198)" d="m0 0 2 1-12 8 2 9-3-3v-3h-3l1-4z" fill="#19393E"/>
<path transform="translate(699,722)" d="m0 0h4l6 12 7 6-3 1-5-4-6-10-1-3z" fill="#1C3B40"/>
<path transform="translate(1385,467)" d="m0 0 4 1-4 4-8 16-2-2 8-15z" fill="#234044"/>
<path transform="translate(999,281)" d="m0 0 4 2 9 15-3 1-10-16z" fill="#264347"/>
<path transform="translate(1056,161)" d="m0 0 3 3 2 3 2-1 2 7v8l-9-18z" fill="#90E3E9"/>
<path transform="translate(246,1050)" d="m0 0 3 1-9 14-4 4 1-4z" fill="#213E43"/>
<path transform="translate(1084,927)" d="m0 0 13 2 3 3-5 1-11-4z" fill="#F2EEFF"/>
<path transform="translate(1059,61)" d="m0 0h5l1 3 10 2 1 2-8-1-7-2v-2l-3-1z" fill="#89D9EF"/>
<path transform="translate(522,1112)" d="m0 0 3 1-2 7-2 1-1 12h-1l-1-8 2-9z" fill="#D7C8FE"/>
<path transform="translate(403,441)" d="m0 0 2 2 3 13v5h-2l-3-12z" fill="#2E494C"/>
<path transform="translate(321,299)" d="m0 0 4 1 15 10-1 3-13-9-2-1v-2l-3-1z" fill="#264347"/>
<path transform="translate(901,226)" d="m0 0v3l-18 11-2-1 10-7z" fill="#1B3A3F"/>
<path transform="translate(922,158)" d="m0 0v3l-18 11-2-1 10-7z" fill="#1D3B40"/>
<path transform="translate(598,1104)" d="m0 0 3 3v8h-2l-1 2-3-5 1-3 1 1z" fill="#C9B4FE"/>
<path transform="translate(360,993)" d="m0 0 5 4 4 5v2l4 2 2 3h-3l-7-7-5-7z" fill="#2A4549"/>
<path transform="translate(828,873)" d="m0 0v3l-8 8-10 6-1-2 13-9z" fill="#1E3C41"/>
<path transform="translate(315,527)" d="m0 0 7 4 10 7-1 3-15-11z" fill="#213E43"/>
<path transform="translate(1448,452)" d="m0 0 3 1-2 2-14 5-4-1 4-2z" fill="#264246"/>
<path transform="translate(373,406)" d="m0 0 2 1-10 7-8 5h-2v-2z" fill="#1E3C41"/>
<path transform="translate(916,379)" d="m0 0 3 1-5 4-11 6-1-4 7-2z" fill="#264347"/>
<path transform="translate(872,340)" d="m0 0 4 2 7 11-1 3-7-10z" fill="#244145"/>
<path transform="translate(831,274)" d="m0 0 3 1 7 11 1 3h-3l-8-13z" fill="#2C484B"/>
<path transform="translate(932,775)" d="m0 0 12 3 7 3v2l-9-3-12-3z" fill="#3F5858"/>
<path transform="translate(680,716)" d="m0 0 7 1 9 3 7 1-4 2-9-2-10-4z" fill="#2F4A4D"/>
<path transform="translate(840,289)" d="m0 0 4 2 7 11v3h-2l-9-15z" fill="#1D3C40"/>
<path transform="translate(354,418)" d="m0 0 2 2-16 10-2-2z" fill="#254145"/>
<path transform="translate(1014,319)" d="m0 0 2 2-15 9-2-2 4-1v-2z" fill="#2A474A"/>
<path transform="translate(883,266)" d="m0 0 3 4 7 11-3 1-8-13z" fill="#2A474A"/>
<path transform="translate(1257,163)" d="m0 0h1l2 6 7 4-4 1-7-4-4-2h4z" fill="#F3FDDE"/>
<path transform="translate(244,1021)" d="m0 0 2 3 4 13v3h-2l-4-13z" fill="#1E3C41"/>
<path transform="translate(190,980)" d="m0 0 1 4-3 15-3 2 1-8z" fill="#2E484C"/>
<path transform="translate(838,858)" d="m0 0 1 3-7 11-3 2v-3l7-10z" fill="#294549"/>
<path transform="translate(426,460)" d="m0 0 3 1-5 4-9 6h-2v-2l12-8z" fill="#274448"/>
<path transform="translate(317,300)" d="m0 0 7 6 5 7-3 1-2-5-3-1-4-6z" fill="#4A5F5F"/>
<path transform="translate(461,524)" d="m0 0h2l-1 8-3 10-2-1z" fill="#2C494B"/>
<path transform="translate(340,311)" d="m0 0 7 4 7 5-1 3-12-9z" fill="#203E43"/>
<path transform="translate(442,970)" d="m0 0 4 1-1 4-1 1v5l-5-1z" fill="#F8F6FD"/>
<path transform="translate(195,715)" d="m0 0 13 1v3l-16-2z" fill="#2D474A"/>
<path transform="translate(336,428)" d="m0 0 3 1 1 16-2-3-1-10h-2z" fill="#1B3A3F"/>
<path transform="translate(1108,61)" d="m0 0h10l-1 3-10 1z" fill="#8BDAEE"/>
<path transform="translate(388,396)" d="m0 0 2 2-14 9-3-2 9-5z" fill="#244245"/>
<path transform="translate(733,625)" d="m0 0 3 3 4 9 1 2-4-1-4-9z" fill="#2B474A"/>
<path transform="translate(1289,519)" d="m0 0h2l-2 4-10 9h-2l1-3 9-7z" fill="#1C3B40"/>
<path transform="translate(272,471)" d="m0 0 2 1-10 7-6 2 4-4z" fill="#1E3C41"/>
<path transform="translate(871,189)" d="m0 0 3 1-5 4-9 5-1-2 11-7z" fill="#294548"/>
<path transform="translate(452,1028)" d="m0 0 2 1-2 4-6 3-1-4z" fill="#F3DBE5"/>
<path transform="translate(934,590)" d="m0 0h2v5l-6 9-2-2 5-8z" fill="#2E494C"/>
<path transform="translate(418,590)" d="m0 0h2l8 10 2 5-5-5-7-8z" fill="#274347"/>
<path transform="translate(448,571)" d="m0 0h2l-2 10-2 6-2-2z" fill="#2C474A"/>
<path transform="translate(285,507)" d="m0 0 4 1 9 6-1 3-11-8z" fill="#213E43"/>
<path transform="translate(1014,264)" d="m0 0 2 1-10 7-6 1 3-3z" fill="#2A474A"/>
<path transform="translate(490,1354)" d="m0 0h2l-2 4-7 7-3-1 5-4 1-2h2z" fill="#314A4D"/>
<path transform="translate(951,782)" d="m0 0 5 1 10 5-2 2-12-6z" fill="#314B4E"/>
<path transform="translate(1417,487)" d="m0 0 1 2-8 12-2-2 8-11z" fill="#264246"/>
<path transform="translate(312,445)" d="m0 0v3l-11 7-2-1 11-8z" fill="#1D3C40"/>
<path transform="translate(1010,299)" d="m0 0 4 2 6 11-2 1-8-13z" fill="#213F43"/>
<path transform="translate(1136,929)" d="m0 0 3 1-9 9-2-2 4-2v-3z" fill="#395052"/>
<path transform="translate(935,578)" d="m0 0h2l1 8-1 4h-2z" fill="#586B68"/>
<path transform="translate(439,452)" d="m0 0h2l-1 3-10 6-2-1z" fill="#223F44"/>
<path transform="translate(378,1103)" d="m0 0h2l-2 5-5 8-1-3z" fill="#234044"/>
<path transform="translate(196,1080)" d="m0 0 7 6 9 2v1h-7l-7-4z" fill="#1E3C41"/>
<path transform="translate(58,939)" d="m0 0 4 1-2 7h-2l-1-5z" fill="#B7FBD9"/>
<path transform="translate(655,585)" d="m0 0h2v2l-8 5-3 4v-5z" fill="#15363B"/>
<path transform="translate(381,378)" d="m0 0h2l8 10-3 1-7-9z" fill="#234044"/>
<path transform="translate(371,335)" d="m0 0 6 1 7 5v2l-5-2-8-5z" fill="#284548"/>
<path transform="translate(910,312)" d="m0 0h3l6 12-2 1-7-12z" fill="#284548"/>
<path transform="translate(387,1091)" d="m0 0h2l-2 4-6 9-2-2z" fill="#264246"/>
<path transform="translate(541,743)" d="m0 0 4 1-12 5-2-2z" fill="#365252"/>
<path transform="translate(1279,630)" d="m0 0h2l5 12h-3l-4-10z" fill="#244045"/>
<path transform="translate(376,570)" d="m0 0 7 4 4 4h-3l-8-6z" fill="#264246"/>
<path transform="translate(429,373)" d="m0 0 11 7-1 3-10-7z" fill="#244045"/>
<path transform="translate(999,273)" d="m0 0 3 1-3 3 2 4h-3l-1-2-3-2 2-3z" fill="#1A393E"/>
<path transform="translate(900,171)" d="m0 0 3 1-5 4-7 4v-3z" fill="#294649"/>
<path transform="translate(969,145)" d="m0 0 3 1 6 10-1 2-7-10z" fill="#213F43"/>
<path transform="translate(1085,31)" d="m0 0 3 1-1 9h-2z" fill="#81D4EA"/>
</svg>
