<?xml version="1.0" encoding="UTF-8"?>
<svg version="1.1" viewBox="0 0 1600 1066" width="1280" height="1280" xmlns="http://www.w3.org/2000/svg">
<path transform="translate(0)" d="m0 0h1600v1066h-1600z" fill="#FCFCFC"/>
<path transform="translate(607,219)" d="m0 0h11l17 1 3 1h7l3 3 3 5 5 3 1 5-4 10-4 4 1 4 4 5 1 2v9l-4 6-9 4-3 6-8 7h-2l1 12 3 7v3h2v-2h18l10 3 18 8 16 8 4 3v9l7-1 8 5 7-1 36-18 15-15 7-2h9l8 5-2 4-19 13-11 10-8 7-15 14 2 2 7 1h30l30-5 39-10 55-16 35-9 33-7 27-4 19-2h54l24 3 27 6 27 9 20 9 17 9 17 12 16 13 19 19 11 15 9 15 10 25 5 18 2 19v4l8 9 4 9-1 10-9 30v14l7 8 13 13 4 8 4-8 8-7 10-4 21-4 8-4 6-7 2-9v-14l-2-5-2-9-3-9-2-12v-12l4-19 8-16 7-8 7-6 10-4 5-1 15 1 17 6 7 3v2l5 2 7 10 3 10v13l-5 12-7 10-7 6h-2v2l-6 2v2l-4 2-1 2-4 2-3 6-1 6h2l5 14 6 12 2 13v8l-2 13-6 12-4 7-9 9h-2l-1 3-5 3h-2v2h-3v2l-7 2v2l-7 2v2l-8 4-9 8-3 10v8l5 12 10 14v3l5 1 2 10 2 7v11l4 2v4h-5v3l-7 4v2l4 1-2 4h-8l-7 5-14 4-21 4-8 3-5 5-4 6-2 24-4 6-5 3-7 3h-16l-10-3v-2l-6-2-8-7-2-2-14-3-15-5-6-3-4 2-7 8-9 8-17 9-6 2-7 1h-11l-9-2-10-5-4-3-2 33-1 16-1 6h-29l-2-21-7-90-2-26-1-4-7 35-8 43-7 36-4 21-1 1h-32v-10l3-36v-14l-5-4-5-10-3-9-2-16 1-24 1-21v-20l-2-15-4-11-7-11-14-12-13-11-9-10v-2l-19 5-10 4-1 2 1 9 5 13 3 13 3 14v27l-2 3v11l-3 12 2 1-2 9 1 22-3 23-1 10h-1v-17l-2 43-2 42-2 16-5 15-5 9-7 9-10 10-11 7-16 6-10 2h-21l-13-3-16-8-11-8-7-7-9-14-6-14-9-26-16-43-2-8-8 7-8 6-14 7-9 3-7 1h-12l-15-3-12-5-11-8-10-10-7-12-5-16v-7l-7-1-25-6-5-2-2 4-7 8-9 8-12 6-10 3-4 1h-20l-12-3-16-8-9-7v-2h-2l-9-12-5-11-3-11h-2l-2 4-15 14-8 7-10 9-24 22-13 10-14 7-12 4-8 1h-18l-16-4-14-7-15-12-10-14-6-13-3-11-1-6v-18l4-17 13-27 13-28 18-37 6-13-1-7-9-17-3-10 1-12 6-12 3-4h2v-2l11-7 15-6 8-2v-2l9-3 4-1 2-5 3-8v-15l-8-16-9-12-6-11 1-8-5 1-2-6 1-5 3-5v-4l-4-2v6h-2v-22l5-15 6-11 8-8 12-7 17-4h23l15 2 12 5 9 7 6 8 4 6 3 1-3 3 1 12-2 8-4 10-9 12-5 4-5 5-7 8-1 3v7l11-7 5-2 3-8 5-3h9l38 9 19 6 4 4 1 9v5l4 8 1 3 5-30 4-18 1-17 2-32v-24l-14-11-14-12 2-4 9-10 8-7 9-8 5-3 9-1h10l12-1 5-4v-18l-2-4h-13l-6-5-4-9v-8l2-7 3-3-1-7-1-5 5-11 5-2 6-7z" fill="#F4E7E9"/>
<path transform="translate(414,366)" d="m0 0h23l15 2 12 5 9 7 6 8 4 6 3 1-3 3 1 12-2 8-4 10-9 12-5 4-5 5-7 8-1 3v7l11-7 5-2 3-8 5-3h9l38 9 19 6 4 4 1 9v5l4 8 2 8v15l13 4 32 8 7 2-1 25-2 31-5 80-1 9 6-1-1 9-2 8 11-1 2-1h7l4 1 1-10 1-5 8-1 6-36 12-71 4-24 7 1 9 2 2 3 9 49 5 24 8 41v2h6l2 6 1 9 8-2 13-4v-9h15l-5-33-7-44-4-24v-4l14 3 64 16h3l7-13 6-7 8-5 4-9 4-3h10l37 9 20 6 4 6v11l6 7 4 10 1 32 10 13 9 16 6 17 3 15v27l-1 5-4 68-2 43-2 42-2 16-5 15-5 9-7 9-10 10-11 7-16 6-10 2h-21l-13-3-16-8-11-8-7-7-9-14-6-14-9-26-16-43-2-8-8 7-8 6-14 7-9 3-7 1h-12l-15-3-12-5-11-8-10-10-7-12-5-16v-7l-7-1-25-6-5-2-2 4-7 8-9 8-12 6-10 3-4 1h-20l-12-3-16-8-9-7v-2h-2l-9-12-5-11-3-11h-2l-2 4-15 14-8 7-10 9-24 22-13 10-14 7-12 4-8 1h-18l-16-4-14-7-15-12-10-14-6-13-3-11-1-6v-18l4-17 13-27 13-28 18-37 6-13-1-7-9-17-3-10 1-12 6-12 3-4h2v-2l11-7 15-6 8-2v-2l9-3 4-1 2-5 3-8v-15l-8-16-9-12-6-11 1-8-5 1-2-6 1-5 3-5v-4l-4-2v6h-2v-22l5-15 6-11 8-8 12-7z" fill="#2E2D50"/>
<path transform="translate(416,98)" d="m0 0h34l25 5 18 6 16 8 16 9 19 14 14 12 21 21 22 28 9 10 2 6 5 1v1l-13 2-8 5-5 6h-4l-1 4-3 7 1 5 1 7-4 5-1 5v8l5 10 4 3 13 1 3 4v18l-6 5-12 1h-15l-7 3-10 8-7 7-8 7-4 5 2 4 17 14 9 7v24l-2 32-1 17-7 34-2 16-2-2-4-10-1-1v-11l-3-5-6-3-27-7-19-5-6-1h-9l-5 2-3 9-10 5-7 4v-8l4-7 7-7h2l2-4 5-5 7-9 5-12 1-12-1-7 1-2-4-5-6-9-9-7-12-5-15-2h-23l-17 4-12 7-7 7-8 16-3 10-1 22h2v-6l5 2-1 6-3 4 1 5 1 4h4v8l6 11 9 12 8 16v15l-4 10-2 3-9 4h-4v2l-21 8-10 6-3 1v2h-2l-8 16-1 12 4 12 9 17-1 7-15 31-13 28-18 37-5 14-2 10v18l3 14 5 12 6 10 6 8v2l-21-3-19-5-2-4 3-7h-3l-1 5h-4v-5l-7-1-4-6-1-5-3-1 1-4 1-3-8-2 3-2-1-10 13-19 3-5 1-6-4-8-9-7-17-10-7-7-2-5v-10l4-8 13-16 4-8v-6l-7-8-7-7-8-7-5-6-1-2v-7l3-7 8-12 5-9v-8l-5-10-10-9-11-9-7-7-4-7-1-4v-11l5-12 7-8 9-6 9-3 14-1 14 3 9 6 4 5 5 15 5 33 3 8 5 4 10 4 10 1-7-7-7-10-8-17-22-54-6-19-8-30-5-23-3-26-1-18v-29l2-30 4-25 6-21 5-14 7-15 11-20 11-16 11-14 16-16 17-13 19-11 19-8 20-6 21-4z" fill="#F4E7E9"/>
<path transform="translate(1070,358)" d="m0 0h13l9 2 6 4 7 8 4 13-1 5-5 3h-2l-1 3-5-1v-2h-2l3 6 2 19 1 4 1 27 23 2h10l6 3 11 9 19 19-1 4-18 13-10 9v19l1 18 6 2 10 8 10 9 9 10 5 6 3 2 2 6 10 17 9 19 6 16 2 1 7-4 4-5v-14l-7-20v-8l-4-1v-1h7l1-5 15-11 5-7 1-4v-8l-3-10-5-10 1-16-3-5 4-10 1-2 11-6 3-5 6-2h14l6 4 7 7 5 9 1 9-6 20-4 14v14l7 8 13 13 4 8 4-8 8-7 10-4 21-4 8-4 6-7 2-9v-14l-2-5-2-9-3-9-2-12v-12l4-19 8-16 7-8 7-6 10-4 5-1 15 1 17 6 7 3v2l5 2 7 10 3 10v13l-5 12-7 10-7 6h-2v2l-6 2v2l-4 2-1 2-4 2-3 6-1 6h2l5 14 6 12 2 13v8l-2 13-6 12-4 7-9 9h-2l-1 3-5 3h-2v2h-3v2l-7 2v2l-7 2v2l-8 4-9 8-3 10v8l5 12 10 14v3l5 1 2 10 2 7v11l4 2v4h-5v3l-7 4v2l4 1-2 4h-8l-7 5-14 4-21 4-8 3-5 5-4 6-2 24-4 6-5 3-7 3h-16l-10-3v-2l-6-2-8-7-2-2-14-3-15-5-6-3-4 2-7 8-9 8-17 9-6 2-7 1h-11l-9-2-10-5-4-3-2 33-1 16-1 6h-29l-2-21-7-90-2-26-1-4-7 35-8 43-7 36-4 21-1 1h-32v-10l3-36v-14l-5-4-5-10-3-9-2-16 1-24 1-21v-20l-2-15-4-11-7-11-14-12-13-11-9-10v-2l-7 2h-6l2-2 6-2 2-1-8-18-2-8v-20l4-9 6-8 11-7 9-1 22 7 9-1 8-7 4-5 5-11 7-19 5-13 1-6-31 12-9 3h-3v-12l2-27 1-6 26-4 39-5 5-1 1-18-4-2-7-6-4-8 1-3 1-17 1-2-11-1-6-5v-11l5-8 7-6 7-3z" fill="#AED6FC"/>
<path transform="translate(961,618)" d="m0 0h4l9 11 9 8 11 9 8 7 7 11 4 11 2 15v20l-2 38 1 17 3 12 4 10 4 5 3 2v14l-4 46 32-1 8-42 8-41 6-31 4-21 2-2 1 6 10 130v7h29l2-36 1-14h3l3 6v2h2l4 6 13 13 3 2v2l5 2 3 2 9 1h8l31 7 9 3 1 4-4 4-1 2 7 1 32 1v1l-24 1 15 1 2 3-1 4-7 8-9 6-10 4-21 5-10-1h-2l-7 7-6 5-5 2-13 10-16 10-17 9h-2v2l-15 7-30 10-23 5-23 3-13 1h-22l-22-2-33-7-22-7-7 1-13 4-27 5-54 7-61 5-19 1-36 1h-67l-51-1-27-1-9-2-1-2-6 5-2-1 2-3h-19l-47-5-37-6-48-10-10-3-2-3-7 2-1 6v23l1 7-2-2-2-6v-28h2v-9l-4 1-5-5-1-7 3-5 12-7 7-2 7-6 2-1h11l3 1v-2l8-3 41-7 29-4 43-4 24-2 38-2 50-1 11 1 4 1 6-4 21-8 17-4 8-1h18l17 2 23 5 22 7 1-2 6 16 7 12 10 11 13 9 16 7 10 2h21l16-4 11-5 11-7 11-11 7-11 5-12 3-11 2-32 2-37 1-28 1-13h1v20l2-18 1-10-1-17 2-9-1-3 2-10v-11l2-3v-27l-3-14-4-17-4-9-1-10 1-2 17-6z" fill="#FCFCFC"/>
<path transform="translate(414,366)" d="m0 0h23l15 2 12 5 9 7 6 8 4 6 3 1-3 3 1 12-2 8-4 10-9 12-5 4-5 5-7 8-1 3v7l11-7 5-2 3-8 5-3h9l38 9 19 6 4 4 1 9v5l4 8 2 8v15l13 4 32 8 7 2-1 25-2 31-5 80-1 9 6-1-1 9-2 8 11-1 2-1h13l25 6 8 1-2 4-12-2h-6l-1 1 17 8v8l-9-1-49-11-3-1 1 3 10 3v14l-3 12-7 12-2 3h-2l-1 3-11 8-10 4-5 1h-16l-15-4-10-6-8-8-5-8-4-11-1-4v-20l2-9-18 5-8 1h-21l-15-3-16-6-17-9-15-13-7-8-7-10-7-15-6-23-1-18 3-22 4-13 1-4-7 15h-1l1-7 8-16 7-11 10-13 4-10v-15l-8-16-9-12-6-11 1-8-5 1-2-6 1-5 3-5v-4l-4-2v6h-2v-22l5-15 6-11 8-8 12-7z" fill="#2E2D50"/>
<path transform="translate(361,578)" d="m0 0 1 4-2 11v11l3 20 3 13 8 16 8 15 10 11v2l4 2 10 9 17 9 24 8 9 1h29v-5h1l3 20 4 12 9 14 7 7 14 9 12 5 10 2h11l21-5 14-7 8-8 5-4 6-9 11 3 23 6v4h-2l3 5 2 10 4 7 6 10 6 6v2h2l7 8 11 7 15 5h17l12-3 12-5 13-9 12-11 3-4 20 10 15 6 12 3 9 1h15l20-3 18-6 16-8 14-10 8-8 10-13 6-10 4-11 2-22 3-19-1-12-1-5-3-13-3-8-4-9-1-5h-2l-6-11v-2h-2l-2-4 3-2 7 8 10 18 6 17 3 15v27l-1 5-4 68-2 43-2 42-2 16-5 15-5 9-7 9-10 10-11 7-16 6-10 2h-21l-13-3-16-8-11-8-7-7-9-14-6-14-9-26-16-43-2-8-8 7-8 6-14 7-9 3-7 1h-12l-15-3-12-5-11-8-10-10-7-12-5-16v-7l-7-1-25-6-5-2-2 4-7 8-9 8-12 6-10 3-4 1h-20l-12-3-16-8-9-7v-2h-2l-9-12-5-11-3-11h-2l-2 4-15 14-8 7-10 9-24 22-13 10-14 7-12 4-8 1h-18l-16-4-14-7-15-12-10-14-6-13-3-11-1-6v-18l4-17 13-27 13-28 18-37 7-14 3-7 10-21z" fill="#1A1A3E"/>
<path transform="translate(607,219)" d="m0 0h11l17 1 3 1h7l3 3 3 5 5 3 1 5-4 10-4 4 1 4 4 5 1 2v9l-4 6-9 4-3 6-8 7h-2l1 12 3 7v3h2v-2h18l10 3 18 8 16 8 4 3-1 7-7 27-2 8-4-1-13-10-12-9-1 98 31 1 10 5 6 7 4 11 7 43 4 28 2 12 8 53 6 36v8h-15l1 9-9 3-11 4-3-1-2-14-6-1-3-13-10-51-5-24-5-28-1-2-16-4-1 11-3 20-16 92-1 8-1 1h-8l-1 10-1 5h-11l-2 1h-11l2-11v-5h-5l1-23 5-86 3-36-7-1-39-10-7-3v-18l4-27 5-23 1-17 2-32v-24l-14-11-14-12 2-4 9-10 8-7 9-8 5-3 9-1h10l12-1 5-4v-18l-2-4h-13l-6-5-4-9v-8l2-7 3-3-1-7-1-5 5-11 5-2 6-7z" fill="#AED6FC"/>
<path transform="translate(704,868)" d="m0 0h18l17 2 23 5 22 7 1-2 6 16 7 12 10 11 13 9 16 7 10 2h21l13-3h3v2l12 4 1-5 8-7 9-7 10-9 6-1 14 6 9 7 3 4-1 8-9 7-16 7-9 1 15 5 24 6 17 3 21 2h17l25-2 24-4 23-6 25-9 7-3 3 1-15 7-30 10-23 5-23 3-13 1h-22l-22-2-33-7-22-7-7 1-13 4-27 5-54 7-61 5-19 1-36 1h-67l-51-1-27-1-9-2-1-2-6 5-2-1 2-3h-19l-47-5-37-6-48-10-10-3-2-3-7 2-1 6v23l1 7-2-2-2-6v-28h2v-9l-4 1-5-5-1-7 3-5 12-7 7-2 7-6 2-1h11l3 1v-2l8-3 41-7 29-4 43-4 24-2 38-2 50-1 11 1 4 1 6-4 21-8 17-4z" fill="#F4E6E9"/>
<path transform="translate(466,495)" d="m0 0 21 2 24 8 16 9 4 3v2l4 2 9 10 2 6h2l11 18 5 16 2 9 1 11v12l-2 14-3 12-6 15-8 14-18 6-11 7-8 9-6 10-18 5-8 1h-21l-15-3-16-6-17-9-15-13-7-8-7-10-7-15-6-23-1-18 3-22 4-13 7-14 8-11h2v-2l5-2 2-4 7-6 9-6 14-8 14-5 11-2z" fill="#484666"/>
<path transform="translate(818,587)" d="m0 0h20l18 3 16 6 12 6 9 7 5 4 9 11 1 3 4 1 8 17 6 17 2 12 1 11v12l-3 17-5 15-8 15-9 12-10 10-15 10-14 6-15 4-15 2h-10l-19-3-21-8-16-10-9-8v-14l-2-11-7-14-10-11-9-6-2-6v-4l10-1-41-1v-4h64l-4-5-15-7-12-5-2-2 1-8h8l-1-11 2-10 10-13 9-10 8-7 13-9 15-8 16-4z" fill="#494667"/>
<path transform="translate(1395,435)" d="m0 0 15 1 17 6 7 3v2l5 2 7 10 3 10v13l-5 12-7 10-7 6h-2v2l-6 2v2l-4 2-1 2-4 2-3 6-1 6h2l5 14 6 12 2 13v8l-2 13-6 12-4 7-9 9h-2l-1 3-5 3h-2v2h-3v2l-7 2v2l-7 2v2l-8 4-9 8-3 10v8l5 12 10 14v3l5 1 2 10 2 7v11l4 2v4h-5v3l-7 4v2l4 1-2 4h-8l-7 5-14 4-21 4-8 3-5 5-4 6-2 24-4 6-5 3-7 3h-16l-10-3v-2l-6-2-8-7v-4l10-4 6-4 4-8 1-5 1-24 3-11 6-10 5-3h3l1-3 11-7 6-8 1-4v-9l-4-13-9-12-6-7v-2l9-5 5-10v-13l-2-16v-8h2l2-14 4-8 8-7 10-4 21-4 8-4 6-7 2-9v-14l-2-5-2-9-3-9-2-12v-12l4-19 8-16 7-8 7-6 10-4z" fill="#FD78A4"/>
<path transform="translate(1045,593)" d="m0 0h96l-3 45-4 59-3 50v14l-2 22-2 40-2 30-1 6h-29l-2-21-7-90-2-26-1-4-7 35-8 43-7 36-4 21-1 1h-32v-10l12-141 6-72 2-18v-19z" fill="#6E3991"/>
<path transform="translate(1257,487)" d="m0 0h14l6 4 7 7 5 9 1 9-6 20-4 14v14l7 8 13 13 3 5v14l-1 3h-2l3 24v13l-5 10-8 5h-2l8 10 9 13 3 11v9l-3 7-5 6-11 7-1 2-8 4-6 11-2 9-1 24-3 10-5 6-10 5-6 2-14-3-15-5-6-3-4-1-9-7-7-8-5-12-2-16 2-11 4-7 7-7 9-7 3-4v-10l-7-13-6-11-1-9 2-8 7-8 5-4 6-1 7-6 1-2v-14l-7-20v-8l-4-1v-1h7l1-5 15-11 5-7 1-4v-8l-3-10-5-10 1-16-3-5 4-10 1-2 11-6 3-5z" fill="#ADD4FA"/>
<path transform="translate(233,466)" d="m0 0 14 1 11 4 8 7 5 13 4 25 3 16 3 5 8 5 25 7 6 4 6 7 3 7v10l-6 11-8 13-2 5v11l5 6 17 9-9 20-15 31-13 28-4 13-1 6v18l3 14 5 12 6 10 6 8v2l-21-3-19-5-2-4 3-7h-3l-1 5h-4v-5l-7-1-4-6-1-5-3-1 1-4 1-3-8-2 3-2-1-10 13-19 3-5 1-6-4-8-9-7-17-10-7-7-2-5v-10l4-8 13-16 4-8v-6l-7-8-7-7-8-7-5-6-1-2v-7l3-7 8-12 5-9v-8l-5-10-10-9-11-9-7-7-4-7-1-4v-11l5-12 7-8 9-6 9-3z" fill="#AED6FC"/>
<path transform="translate(607,219)" d="m0 0h11l17 1 3 1h7l3 3 3 5 5 3 1 5-4 10-4 4 1 4 4 5 1 2v9l-4 6-9 4-3 6-8 7h-2l1 12 3 7v3h2v-2h18l10 3 18 8 16 8 4 3-1 7-7 27-2 8-4-1-13-10-12-9-1 99h-24l-42-3-33-3-2-1v-15l2-26 1-15v-24l-14-11-14-12 2-4 9-10 8-7 9-8 5-3 9-1h10l12-1 5-4v-18l-2-4h-13l-6-5-4-9v-8l2-7 3-3-1-7-1-5 5-11 5-2 6-7z" fill="#6E3991"/>
<path transform="translate(886,166)" d="m0 0h23l15 4 16 8 9 7 8 8 8 13 5 14 1 5v13l-3 14-6 14-7 11-8 10-11 10-14 8-15 6-13 3h-28l-19-5-16-8-9-7-8-10-7-14-3-11v-19l4-16 8-16 7-9 12-12 14-9 11-5 16-5z" fill="#F5E8EA"/>
<path transform="translate(624,883)" d="m0 0h19l6 2v3l-5 1v2l-5 3h-3v2l-17 12-3 1v2l-11 9-3 1v2l-11 9-17 16-3 1v2l-6 5h-2v2l-14 11-5 4-3 4-2-1 2-3h-19l-47-5-37-6-48-10-10-3-2-3-7 2-1 6v23l1 7-2-2-2-6v-28h2v-9l-4 1-5-5-1-7 3-5 12-7 7-2 7-6 2-1h11l3 1v-2l8-3 41-7 29-4 43-4 24-2 38-2z" fill="#F4E7E9"/>
<path transform="translate(1141,545)" d="m0 0 6 2 10 8 10 9 9 10 5 6 3 2 2 6 10 17 9 19 6 17-11 10-2 4-1 11 3 8 10 18 1 2v10l-7 8-9 7-6 7-2 6-1 11 3 16 6 12 7 7 7 5-2 5-10 10-10 7-15 7-10 2h-11l-9-2-10-5-4-3v-21l2-23v-13l6-97 4-53 1-3h2z" fill="#9E62CC"/>
<path transform="translate(961,618)" d="m0 0h4l9 11 9 8 11 9 8 7 7 11 4 11 2 15v20l-2 38 1 17 3 12 4 10 2 7 1 3v17l1 6-3 5-20 9-27 9-27 7h-8l-2-9v-12l1-8v-16l-2-2v-24l1-13h1v20l2-18 1-10-1-17 2-9-1-3 2-10v-11l2-3v-27l-3-14-4-17-4-9-1-10 1-2 17-6z" fill="#F4E7E9"/>
<path transform="translate(481,737)" d="m0 0h2l7 18 7 11 3 3v2h2l5 5 1 2-10 5-26 6h-3v2l-7 3-8 7-1 4-3 3-11 21-1 3h-2l-1 4-8 7-1 2h-3v2h-3v2l-14 5-17 3h-13l-12-1-9-3-17-8v-2l-9-3-12-7-19-4h-27l-39 6-19 1h-12l-11-1-6-2v-2l-6-2-6-6v-2h-2l-3-7v-9l4-8 9-8 9-4 6-2 10-2 8-3 2-3h2l2 3 5-1 4-6h2l1 2 4 1 1-3h4v-4l-6-1 1-3 11-1 2-5h-5l-2-3 4-2 8 2v4l-1 4 3 3 4 8 7 2v5l4-2 1-3h3l-1 6v4l19 5 16 2 8 2 8 7 10 6 13 5 10 2h18l11-2 16-6 11-7 13-11 15-14 10-9 11-10 8-7 10-9z" fill="#FD78A4"/>
<path transform="translate(1083,716)" d="m0 0h1l1 6 10 130v7h29l2-36 1-14h3l3 6v2h2l4 6 13 13 3 2v2l5 2 3 2 9 1h8l31 7 9 3 1 4-4 4-1 2 7 1 32 1v1l-24 1 15 1 2 3-1 4-7 8-9 6-10 4-21 5-10-1h-2l-7 7-6 5-2-1 3-3 1-3-29 2h-59l-34-3-30-5-17-4-10-4-4-5 2-1 53-1 10-2 2 3 10 2h47l2-1h6l1-5 1-4-2-5-1 13h-60l-3-1v-8l4-2-1-2-5-1-5-3-2 13h-62v-8l3-3 25-9 12-2v-3l-4-1 29-1 8-42 8-41 6-31 4-21z" fill="#F3E7EA"/>
<path transform="translate(414,366)" d="m0 0h23l15 2 12 5 9 7 6 8 4 6 3 1-3 3 1 12-2 8-4 10-9 12-5 4-5 5-7 8-2 12-6 10-8 16-2 3-16 7-15 9-9 6 3-10v-15l-8-16-9-12-6-11 1-8-5 1-2-6 1-5 3-5v-4l-4-2v6h-2v-22l5-15 6-11 8-8 12-7z" fill="#8B5B9E"/>
<path transform="translate(1044,594)" d="m0 0h90v1l-12 2-22 3-19 4h-5l4 48 4 50v10l-7 37-7 36-7 35-6 33-1 1h-32v-10l12-141 6-72 2-18z" fill="#48235F"/>
<path transform="translate(661,456)" d="m0 0 31 1 10 5 6 7 4 11 7 43 4 28 2 12 8 53 6 36v8h-15l1 9-9 3-11 4-3-1-2-14-6-1-3-13-10-51-5-24-5-28-2-7-2-15h-9l1-11 1-8v-27l-3-8-7-6-5-3v-2z" fill="#8AC6FC"/>
<path transform="translate(1299,611)" d="m0 0 2 4 2 16v13l-5 10-8 5h-2l8 10 9 13 3 11v9l-3 7-5 6-11 7-1 2-8 4-6 11-2 9-1 24-3 10-5 6-10 5-6 2-14-3-15-5-6-3-4-1-9-7-7-8-5-12-2-16 9-3 20-7 21-11 5-5 12-11 8-10 4-4 4-8 4-14 1-6 1-25 12-13 10-10z" fill="#AED6FC"/>
<path transform="translate(1217,590)" d="m0 0 10 3 19 10 10 8 7 8 7 14 2 7v25l-3 12-8 16-9 11-8 8-7 5-5 5-23 11-15 5-8 1v-7l4-9 8-8 9-7 3-4v-10l-7-13-6-11-1-9 2-8 7-8 5-4 6-1 7-6 1-2v-14l-7-20z" fill="#AED6FD"/>
<path transform="translate(1369,801)" d="m0 0h9l10 2 9 4 6 4 5 7 1 4v10l-4 8-9 9-13 8-17 5-11 2-12 5-10 6-17 17-8 4-10-2-7-4-6-8-2-7v-8l2-8-7 2 3-3 6-4 5-7v-8l-3-6-6-8 4 2 5 6 2 3v4l4-2 7-8 17-12 16-8 13-5 10-3z" fill="#FEE073"/>
<path transform="translate(1040,595)" d="m0 0h5v18l-4 42-12 142-5-5-6-9-4-12-2-16 1-24 1-21v-20l-2-15-4-11-7-11-14-12-13-11-9-10v-2l-2-1 15-4 32-10z" fill="#AED6FC"/>
<path transform="translate(603,761)" d="m0 0 10 2 27 7 3 15 4 10 5 8 3 7-1 5-19 19-15 6-8 2h-18l-13-4-18-11-10-11-7-10-1-2v-10l1-1-3-2 16-1 11-3 11-5 9-6 9-9z" fill="#FEE073"/>
<path transform="translate(607,219)" d="m0 0h11l17 1 3 1h7l3 3 3 5 5 3 1 5-4 10-4 4 1 4 4 5 1 2v9l-4 6-9 4-3 6-8 7h-2l1 12 3 7v3h2l-1 5-5 5-7 2h-7l-10-3-5-4-3-7 6-4 1-1v-18l-2-4h-13l-6-5-4-9v-8l2-7 3-3-1-7-1-5 5-11 5-2 6-7z" fill="#FDBAC0"/>
<path transform="translate(703,705)" d="m0 0 16 1 12 7v2l4 2 7 9 3 8v17l-5 12-5 6-8 7-6 4-7 2h-14l-11-4-11-7-8-10-3-12v-14l3-8 6-8 8-7 6-3z" fill="#494767"/>
<path transform="translate(548,665)" d="m0 0 15 2 11 6 7 8 6 11 1 3v15l-5 13-3 4h-2v2l-10 8-10 5-9 1-14-3-11-6-7-7-5-8-1-3-1-15-1-2 1-9 3-3v5l3-1 6-9 7-7-1-3 3-3 11-2 2 1v-2z" fill="#484666"/>
<path transform="translate(1083,716)" d="m0 0h1l1 6 10 130v7l8 1v1l-7 1-8 3-20 7-7-1-6-4-2 13h-62v-8l3-3 25-9 12-2v-3l-4-1 29-1 8-42 8-41 6-31 4-21z" fill="#F9FAFC"/>
<path transform="translate(527,246)" d="m0 0h7l9 4 6 5 1 5-3 4h-8l-3-1-1 6-1 1h-7v7l-1 2-6 1 1 4v7l-4 3h-4l1 21 12 41 2 5 4-2 4-5 6-2 13 11 8 6-1 7-14 15-8 7-7 3-13 1-7-3-4-4-4-7-2-12-7-87v-14h6l1-5 4-6 15-15z" fill="#FDBBC0"/>
<path transform="translate(544,658)" d="m0 0h9l14 3 12 6 11 9h3l2 2 3 1 1-8h1v7l-2 8 11-1 2-1h13l25 6 8 1-2 4-12-2h-6l-1 1 17 8v8l-9-1-49-11-3-1 1 3 10 3v14l-3 12-7 12-2 3h-2l-1 3-11 8-10 4-5 1h-16l-15-4-10-6-8-8-5-8-4-11-1-4v-20l2-10 7-12 7-7 11-7zm4 7-4 1v2l-5-1-8 2-3 4v3l-8 8-4 7-3 1v-5l-3 3-1 9 1 5 1 12 4 8 9 10 14 7 13 2 9-2 8-4 7-5 3-3v-2l4-2 5-12 1-3v-15l-3-7-6-10-8-7-8-4z" fill="#1B1B3F"/>
<path transform="translate(487,396)" d="m0 0 10 2 21 7 1 2 6 2 12 8 16 12 5 5 3 2v7l-7 34-2 16-2-2-4-10-1-1v-11l-3-5-6-3-27-7-19-5-6-1h-9l-5 2-3 9-10 5-7 4v-8l4-7 7-7h2l2-4 5-5 7-9 5-12 1-12 1-4 3-3z" fill="#F4E7E9"/>
<path transform="translate(1070,358)" d="m0 0h13l9 2 6 4 7 8 4 13-1 5-5 3h-2l-1 3-5-1v-2h-2l3 6 2 19 1 4 1 27 1 1v10l-3 3-6 2h-10l-9-3-3-4v-8l3-1 1-18-4-2-7-6-4-8 1-3 1-17 1-2-11-1-6-5v-11l5-8 7-6 7-3z" fill="#FDBBC0"/>
<path transform="translate(1203,410)" d="m0 0 5 1v14l-2 25v16l1 4-3 7-1 7-2 31-2 6 7 1h5l-2 4h-7l-6 3-2 2-2 6-5 2h-9l-12-3-8-6-17-17-1-4 3-5 12-10 6-4h5l4 3 2 4h4l2-9 5-13 7-25v-10l-1-12 2-9 5-6z" fill="#FEBCC1"/>
<path transform="translate(703,698)" d="m0 0h9l15 3 14 7 8 8 7 11 4 10 1 8v9l-4 13-6 11-9 10-8 6-7 3-5 1h-26l-11-4-8-5-7-6-5-7-4-11-2-13 1-13 4-15 6-10 9-8 8-4zm0 7-13 4-9 5-8 9-4 5-2 10v11l3 12 8 10 11 7 11 4h14l8-3 6-4 8-7 6-9 3-8v-17l-4-10-8-9h-2v-2l-12-7z" fill="#1A1A3E"/>
<path transform="translate(944,398)" d="m0 0 4 1 12 16 10 14 3 4v2l-37 16-15 6-11 5-4 2-4-1-12-29-6-14v-3l31-10z" fill="#211F44"/>
<path transform="translate(1257,819)" d="m0 0h16l8 3 10 12 2 5v8l-7 9-7 4-3 3-15 4h-38l-7-2 2-5 2-1 2-8 10-12 7-8 7-7 5-3z" fill="#F6F5F9"/>
<path transform="translate(781,313)" d="m0 0h9l8 5-2 4-19 13-11 10-8 7-17 16-7 7-11 8-6 1-12-6-11-8-1-4 6-23 2 2 7-1 8 5 7-1 36-18 15-15z" fill="#FDBBC0"/>
<path transform="translate(948,445)" d="m0 0 7 2 10 9 7 8 5 4h13l11-1v25l-1 3-15 4-9 2h-7l-7-3-9-14-5-11-4-6-6-11 1-5 6-5z" fill="#FDBBC1"/>
<path transform="translate(572,314)" d="m0 0h5l1 1 9 1 1 6 2 4v11l-6 12-11 16-5 8-3-1v-2l-5-2-13-11-11-9v-4l10-11 8-7 9-8 5-3z" fill="#492360"/>
<path transform="translate(703,870)" d="m0 0h22l20 3 21 5 15 5 5 1 8 18 9 12 10 9 14 8 14 5 6 1h21l13-1 2 1v3l-10 2-8 1h-22l-13-3-12-6-11-8-8-9-5-5-7-10-6-12-3-2-65-4h-45l-7-1 1-2 20-7 13-3z" fill="#FAFAFB"/>
<path transform="translate(389,523)" d="m0 0 2 1-12 16-9 17-11 26-9 19-2 5-2-4-10-19-3-10 1-12 6-12 3-4h2v-2l11-7 15-6 8-2v-2l9-3z" fill="#8B5B9F"/>
<path transform="translate(1126,452)" d="m0 0h10l13 10 20 20-1 4-18 13-8 7-6 3-15-25-7-11v-8l5-8 5-4z" fill="#8BC6FD"/>
<path transform="translate(1161,844)" d="m0 0 11 1h8l31 7 9 3 1 4-4 4-1 2 7 1 32 1v1l-24 1 15 1 2 3-1 4-7 8-9 6-10 4-21 5-10-1h-2l-7 7-2-1 13-13 9-11 7-9 1-4-2-1 1-2-12-3-19-7-15-9z" fill="#EADEE5"/>
<path transform="translate(622,220)" d="m0 0h13l3 1h7l3 3 3 5 5 3 1 5-4 10-4 4h-2l-1 3-2-1v-3l-5 2-4 3h-7v-2l-7 3h-11l-3 3-5-1v-2l-5-2-2-1v-10l4-9 6-7 11-6z" fill="#492460"/>
<path transform="translate(371,448)" d="m0 0h4v8l6 11 9 12 8 16v15l-4 10-2 3-9 4h-4l-9-14-5-10-3-14v-9l1-11 7-20z" fill="#F5E7E9"/>
<path transform="translate(1070,358)" d="m0 0h13l9 2 6 4 7 8 4 13-1 5-5 3h-2l-1 3-5-1-2-3v-9l-19 7-10 2h-13l-6-5v-11l5-8 7-6 7-3z" fill="#492460"/>
<path transform="translate(371,389)" d="m0 0 3 1-7 21-1 22h2v-6l5 2-1 6-3 4 1 10-4 8-3 10-5-3h-7l-1-1-2-9-10-8v-6l5-4v-5l-3-3 1-7 2-2 1-4-7-2v-4l11-4 5-5 5-7 4-2 8-1z" fill="#FDFBF9"/>
<path transform="translate(1029,455)" d="m0 0h14l-1 33-1 2-34 13-7 1v-12l2-27 1-6z" fill="#8DC7FD"/>
<path transform="translate(648,314)" d="m0 0 8 1 9 3 16 7 16 8 4 3-1 7-7 27-2 8-4-1-13-10-12-9v-2h-2l-1-36-4-3-7-1z" fill="#492460"/>
<path transform="translate(697,458)" d="m0 0 9 3 7 8 3 8 3 20 4 32 3 17 4 5 20 5 18 5 17 5 12 3 6-3 7-9 5-6 5-5 7-8 7-4 3-1h7l42 11 14 4 4 5 4 8 7 15 2 5 2 9 1 20 3 9 4 4v2h3v2l-7 2-9-11-1-32-5-12-5-5v-11l-3-5-20-6-37-9h-10l-5 5-3 7-9 6-7 10-5 9-11-2-63-16-6-2-2-4-9-60-4-18-6-9-6-4z" fill="#F6F6F9"/>
<path transform="translate(927,911)" d="m0 0 6 1 14 7 8 7 1 7-3 5-11 7-12 5-12 1-20-8-4-3h2l1-5 8-7 9-7 10-9z" fill="#F4E7EA"/>
<path transform="translate(833,537)" d="m0 0h10l37 9 20 6 4 6v7l-1 3-5-2-9-8-6-2v-2l-10-2-12-2-5-2-14-1-6-1-3 2-8 5-10 10-9 15-3 3h-2l-1 4-5-3-30-7-28-8-8-2h-4l-2-6v-4l14 3 64 16h3l7-13 6-7 8-5 4-9z" fill="#1E1D41"/>
<path transform="translate(324,556)" d="m0 0 6 3 5-2-1 17 4 12 9 17-1 7-10 21-2 1-16-8-6-7v-11l7-14 7-11 2-4v-10l-4-9z" fill="#FAFBFC"/>
<path transform="translate(562,370)" d="m0 0h2v24l-2 32-1 9-4-1-4-3v-2l-4-2-16-12-15-9-21-7v-2l12 1 11 3 13-1 8-4 10-9 10-11z" fill="#F4E0E5"/>
<path transform="translate(607,219)" d="m0 0h11l4 2-8 2-10 6-5 6-3 8-1 10 5 2 2 1v2l3 1 4 11-1 8-4 6-6 3h-9l-6-5-4-9v-8l2-7 3-3-1-7-1-5 5-11 5-2 6-7z" fill="#FD78A4"/>
<path transform="translate(1183,582)" d="m0 0 25 5 9 3 2 11 6 17v14l-6 7-7 3-3-4-8-21-12-23-6-10z" fill="#F3E7EA"/>
<path transform="translate(1092,355)" d="m0 0 9 3 9 8 8 11v16l4 2 2 5v10l-3 7-5 5-2 1-15 1-2-6-2-19-2-6h2l1 2h4l3-3 5-3-1-9-4-9-7-8-7-3 4-2z" fill="#AED6FC"/>
<path transform="translate(1083,716)" d="m0 0h1l1 6 5 65v9l-10 5-13 4-1-4 7-38 5-24 4-21z" fill="#ABD4FC"/>
<path transform="translate(1028,858)" d="m0 0 10 2 6 3 9 2v15h-62v-8l3-3 25-9z" fill="#1D1C41"/>
<path transform="translate(749,821)" d="m0 0h6l4 8 8 18-1 5h-8l-25-5-27-7-2-2v-1l-10-1v-2h14l17-2 14-5z" fill="#F5E8EA"/>
<path transform="translate(1095,862)" d="m0 0h11l8 4 10 2v15h-62v-8l8-5z" fill="#1D1C40"/>
<path transform="translate(527,246)" d="m0 0h7l9 4 6 5 1 5-3 4h-8l-3-1-1 6-1 1h-7v7l-1 2-6 1 1 4v7l-4 3h-3l-3-12-5-5-4-2 1-5 4-6 15-15z" fill="#1E1C41"/>
<path transform="translate(649,277)" d="m0 0h2l5 9 14 21 3 7-4 1-9-2h-8v1h-17v2h-2l-4-10v-12l6-4 5-6 2-4z" fill="#F5E8EA"/>
<path transform="translate(918,411)" d="m0 0 2 3-1 38-4 3-10 3-4-5-7-16-4-10v-7l21-7z" fill="#2E2D50"/>
<path transform="translate(1077,842)" d="m0 0h11l3 4-1 10-3 4-14 6-8 5-5-1-5-3-1 7h-1v-9l-12-2-9-4-1-4-4-1 30-1 3-6 5-4z" fill="#F3E7E9"/>
<path transform="translate(889,853)" d="m0 0 8 1 6 3 4 5 2 7v9l-3 5-8 4-3 1h-8l-8-5-4-7v-9l4-8 5-4z" fill="#2E2D50"/>
<path transform="translate(475,433)" d="m0 0h2l2 6 14 5 19 5 13 4 17 5 8 6 6-1-3 21-1 9-2-2-4-10-1-1v-11l-3-5-6-3-27-7-19-5-6-1h-9l-5 2-3 9-10 5-7 4v-8l4-7 7-7h2l2-4 5-5z" fill="#F4F4F9"/>
<path transform="translate(1299,611)" d="m0 0 2 4 2 16v13l-5 10-8 5h-5l-7-8-4-8v-7l12-13 10-10z" fill="#FCFCFC"/>
<path transform="translate(724,660)" d="m0 0h7l1 4-1 4 10 5 16 7 6 5v2h-64l2-15 2 3 8-2 13-4z" fill="#1B1A3F"/>
<path transform="translate(483,806)" d="m0 0h9l9 4 5 5 3 4v7h-2l-2 4-4 4-5 2h-12l-6-3-4-5-3-3v-8l3-5 6-5z" fill="#FD7EA6"/>
<path transform="translate(1141,545)" d="m0 0 6 2 10 8 10 9 9 10 6 7-1 2-1-1-37-2-2-28z" fill="#9A5FC5"/>
<path transform="translate(932,407)" d="m0 0h6l2 4 8 1-2 1-1 4-4 3-1-1-2 5-1 6v11l1 2-14 7h-3v-37l1-3z" fill="#484666"/>
<path transform="translate(943,403)" d="m0 0 4 1 4 4 6 9 8 11 1 5-25 10-4-1-1-1v-11l2-7 1-5 4-1 2-1v-4l-5-1-2-3-5-1 3-2z" fill="#2E2D50"/>
<path transform="translate(835,533)" d="m0 0h9l42 11 14 4 4 5 4 8 7 15 2 5 2 9 1 20 3 9 4 4v2h3v2l-7 2-9-11-1-32-5-12-5-5v-11l-3-5-20-6-37-9h-11l2-4z" fill="#F6F3F7"/>
<path transform="translate(475,447)" d="m0 0h9l38 9 19 6 4 4 1 9-1 2-3-1v-2l-4-1-1-3-6-2-10-4-14-4-11-2h-21l-8 3 2-9 4-4z" fill="#1D1C41"/>
<path transform="translate(389,909)" d="m0 0h10l6 5 1 6-3 6-6 7-8 6h-10l-4-4-2 1 3-10 6-11h2l2-4z" fill="#F2E7EB"/>
<path transform="translate(932,627)" d="m0 0 4 1-1 1 1 9 5 13 3 13 3 14v27l-2 3v11l-3 12 2 1-2 9 1 22-3 23-1 10h-1v-31l3-54 1-5v-27l-5-22-8-18-5-8v-2z" fill="#F6F5F8"/>
<path transform="translate(1161,844)" d="m0 0 11 1h8l31 7 9 3 1 4-4 4-1 2 7 1v1l-10 1-5 7v-3l1-4-2-1 1-2-12-3-19-7-15-9z" fill="#E9D8E3"/>
<path transform="translate(1128,808)" d="m0 0 2 1 3 6v2h2l4 6 13 13 3 2 2 5h-13l-14-1-4 18h-1l-1-7 3-44z" fill="#EEEFF7"/>
<path transform="translate(701,701)" d="m0 0h13l11 4 11 8 6 10-1 3-8-10-2-1v-2l-5-2-7-4-16-1-13 4-9 5-3 4h-2l-2 4-4 5-2 10v11l3 12 7 9 11 7 11 4 14 1v1h-19l-10-4-11-9-5-7-5-12v-15l3-10 4-8 7-8 14-7z" fill="#2E2D50"/>
<path transform="translate(603,761)" d="m0 0 10 2 14 4-4 1-2 6-9 10-2 1h-9l-10-2h-7l-5 2 4-4 9-7 7-7z" fill="#FDFAFB"/>
<path transform="translate(350,645)" d="m0 0 9 2 4 5 2 2 1 9-5 5-5 3h-8l-9-7-1-2v-6l4-7 4-3z" fill="#2E2D50"/>
<path transform="translate(888,938)" d="m0 0 6 2 8 4 16 6 18 6 24 6 17 3 21 2h17l25-2 24-4 23-6 25-9 7-3 3 1-15 7-30 10-23 5-23 3-13 1h-22l-22-2-33-7-25-8-18-8-10-5z" fill="#9BCEFD"/>
<path transform="translate(390,907)" d="m0 0h11l6 5v11l-3 2 1-9-4-5-2-1h-10l-5 5h-2l-2 5-6 14-3 12 11-4h2v2l-13 4-1 6v23l1 7-2-2-2-6v-28h2v-9l-4 1-5-5-1-7 3-5 12-7 7-2 7-6z" fill="#EDE2E8"/>
<path transform="translate(546,661)" d="m0 0h9l13 4 9 7 6 8 4 8-1 4-6-11-7-8-10-5-15-2h-4v2l-13 1-2 4v3l-8 8-5 8h-3l-2-6 7-11 9-7 8-4z" fill="#2E2D50"/>
<path transform="translate(553,513)" d="m0 0 8 1 36 9 7 2v9h-2v-2h-8l-16-5-19-5-8-3v-5z" fill="#1C1C40"/>
<path transform="translate(603,669)" d="m0 0h21l-1 11-1 5h-11l-2 1h-11l2-11 1-5z" fill="#FCB9C0"/>
<path transform="translate(200,920)" d="m0 0h11l18 2 27 6 47 14 23 5 8 1 33 1-2 2h-32l-25-5-29-8-27-8-28-6-7-1h-24l-14 3-7 3-3-1 8-4 12-3z" fill="#98CBFB"/>
<path transform="translate(431,498)" d="m0 0 5 1v2l-9 4-17 9-5 4-7 6-5 5h-2v2h-2l-2 4-9 14-3 3-7 15h-1l1-7 8-16 7-11 10-13 18-12 16-8z" fill="#2A284C"/>
<path transform="translate(529,244)" d="m0 0h11l7 4 4 4 1 4v8l-6 5-7 3-7 6-4 5-3 6-3 4-3-1 1-1v-11l6-1 1-9 7-1 2-6h11l2-5-3-5-9-5-8-3z" fill="#F2F1F7"/>
<path transform="translate(624,670)" d="m0 0h8v2l8 1 17 5v4l-6 3-8-1-1 1-11-1-4-2-2-5-2 1z" fill="#4A4767"/>
<path transform="translate(701,659)" d="m0 0h10l13 1 1 9-9 3-11 4-3-1z" fill="#F9B6BF"/>
<path transform="translate(827,713)" d="m0 0 4 2 6 8 2 5v11l-5 9-6 5-5 2h-11l-6-4-7-8 1-3 7 7 9 3 5-1 6-4h2l1-4 4-4v-14l-6-8z" fill="#2D2C4F"/>
<path transform="translate(800,663)" d="m0 0 3 4 1 5v8l-4 8-7 6-8 3-11-1-8-5v-3l4-1 3 1 6 1h13v-2l5-5h2z" fill="#2E2D50"/>
<path transform="translate(835,533)" d="m0 0h9l42 11 14 4 4 5 1 5h-2l-3-5-20-6-37-9h-11l2-4z" fill="#F0EFF6"/>
<path transform="translate(918,411)" d="m0 0 2 3-1 38-3 1-1-19-4-2-2 5-5-2-1-7 5-8h4v2l3 1 1-10z" fill="#52496E"/>
<path transform="translate(603,761)" d="m0 0 10 2 4 1v2h-3l-2 9-5 4h-16v-4l8-8z" fill="#F4E7E9"/>
<path transform="translate(658,560)" d="m0 0 8 1 5 3 1 7-1 7-15-1-3-1-1-4 3-8z" fill="#494767"/>
<path transform="translate(583,310)" d="m0 0 6 2 1 2-3 1h-15l-7 3-10 8-7 7-8 7-4 5h-2l1-6 4-5h2l2-4 12-12 10-5 10-2z" fill="#F9F6F8"/>
<path transform="translate(647,251)" d="m0 0 4 5 4 6v9l-4 6-5 2h-5l2-19 1-7h2z" fill="#FE79A4"/>
<path transform="translate(894,684)" d="m0 0 4 4 3 5v11l-4 10-6 5-10 2h-7l-8-4-3-4v-2l6 2 7 2h8l8-5 5-10-1-10z" fill="#2E2D50"/>
<path transform="translate(399,411)" d="m0 0h2v2l3-1 3 7 3 6v2l-4-1-2-6-1-2-4 1-1 3-5 2-4 5-4 1-1 3h-2l-2 4h-2l2-5 1-5 5-3 2-5-9-1-4-2 2-2h20z" fill="#6F3C8F"/>
<path transform="translate(508,693)" d="m0 0h1l2 11 1 12 4 8 8 9 14 7 13 2 9-2 8-4 5-4h2l1-3h2v-2l4-2-2 5-10 8-8 4-8 2h-12l-13-4-10-7-6-7-5-11-1-3v-14z" fill="#2E2D50"/>
<path transform="translate(1e3 875)" d="m0 0h35l15 2 3 3h-62l2-2z" fill="#5B3A79"/>
<path transform="translate(704,868)" d="m0 0h18l17 2 23 5 22 7 1-2v4l-7-1-15-5-29-6-9-1h-22l-17 3-16 5-12 5-6 2 4-4 20-8 15-4z" fill="#9ECFFC"/>
<path transform="translate(699,687)" d="m0 0h62l1 4h-63z" fill="#A5D1FC"/>
<path transform="translate(882,418)" d="m0 0 4 4 17 41 3 1v2l-5-1-5-4-4-8-6-16-5-12z" fill="#F0F1F7"/>
<path transform="translate(856,631)" d="m0 0 3 3 2 4v13l-6 9-10 5h-11l-8-4-2-4 12 3 2 1 1-2h6l8-7 4-5z" fill="#2E2D50"/>
<path transform="translate(1053,392)" d="m0 0 9 1-1 19-2 4-5-2-5-5v-11z" fill="#8EC8FD"/>
<path transform="translate(483,627)" d="m0 0 3 2v9l-7 25-2 3h-9l-16-5-5-4-1-4 2 1v2l9 3 8 2h8l2-1 4-13 2-9v-9z" fill="#2E2D50"/>
<path transform="translate(662,358)" d="m0 0 7 4 11 9 6 4v2l-7 1-6-4-5-1-2 3-3 11h-1z" fill="#FCF9FA"/>
<path transform="translate(657,523)" d="m0 0h10l2 4 1 14-9-1-6-3 1-13z" fill="#F9F9FB"/>
<path transform="translate(592,697)" d="m0 0 12 2 48 11 1 4-8-1-30-7-22-5z" fill="#A5CDF8"/>
<path transform="translate(493,599)" d="m0 0h2l3 10 4 6 3 3 21 6 10 1-1 4h-7l-21-5-6-3-6-7-4-9 1-5z" fill="#29284B"/>
<path transform="translate(1140,454)" d="m0 0 6 1 12 9 10 10 5 8v6l-5 2-3-1 1-3 2-1-1-4-4-4v-2l-4-2-12-12-7-5z" fill="#FCFAFA"/>
<path transform="translate(417,567)" d="m0 0 3 1-3 1-3 10-2 15 6 3 25 6v3l-16-2-16-5-3-3v-8l3-13 4-6z" fill="#2D2C4F"/>
<path transform="translate(1125,868)" d="m0 0 3 4 1 5-3 8-8 2h-49l-9-3v-1l65 1z" fill="#FDFDFD"/>
<path transform="translate(371,448)" d="m0 0h4v8l5 10-1 3-10 2-5-2 1-6 5-14z" fill="#FCFBFB"/>
<path transform="translate(506,537)" d="m0 0 2 1 1 8-7 26-9 6-8 4-5-1-1-2 9-3 10-6 4-17 2-13z" fill="#27264A"/>
<path transform="translate(948,397)" d="m0 0 5 2 6 8 5 5 10 15 1 6-4-1-13-18-10-14z" fill="#F7F8FB"/>
<path transform="translate(669,648)" d="m0 0 11 1 13 3v6h-13l-7-3-4 1-2 3-1-1 1-7z" fill="#494767"/>
<path transform="translate(888,938)" d="m0 0 6 2 8 4 16 6 18 6 24 6 6 2v1h-7l-21-5-27-9-23-11z" fill="#96C6F7"/>
<path transform="translate(934,397)" d="m0 0h10v2l-48 15h-5l3-3 12-5 10-3 17-5z" fill="#F4F6FA"/>
<path transform="translate(1155,551)" d="m0 0 11 7 14 14 5 4 6 6h-7l-5-3-11-13-8-8-5-4z" fill="#F7F6F9"/>
<path transform="translate(1089,432)" d="m0 0h5l-3 5-7 6-7 4h-2v-12l1-1z" fill="#FE78A4"/>
<path transform="translate(480,1006)" d="m0 0h5l-2 2-18 5-20 3h-23l-16-3-2-2 11 1 8 1h23l19-3z" fill="#93B0E5"/>
<path transform="translate(494,465)" d="m0 0h10l5 2 11 2 11 6 6 5 4 6-1 2-7-7-8-5-13-5-17-3-2-2z" fill="#494767"/>
<path transform="translate(1062,875)" d="m0 0h1v6l3-1 1-2 4 1 30 1 1 1 20 1v1h-60z" fill="#623A79"/>
<path transform="translate(941,729)" d="m0 0 1 2 2 1-2 9 1 22-3 23-1 10h-1v-31l1-20z" fill="#F8F8FA"/>
<path transform="translate(562,388)" d="m0 0h1v21l-2 26-6-5 1-4 2-1 1-14v-11l2-5z" fill="#F5F7FB"/>
<path transform="translate(525,245)" d="m0 0 3 1-9 7-13 13-3 6v4l-6-1 3-2 2-9 9-10 7-6z" fill="#F0F5FB"/>
<path transform="translate(611,296)" d="m0 0h16l1 9-2 4-7-3-4-3v-2h-2z" fill="#FE78A4"/>
<path transform="translate(219,469)" d="m0 0h7l-3 2-11 6-7 8-4 8-1 3-1 13-2-3v-13l6-12 7-7z" fill="#93CAFD"/>
<path transform="translate(654,538)" d="m0 0 7 1 9 2 1 1v7l-17-2z" fill="#1E1D41"/>
<path transform="translate(387,528)" d="m0 0h2v5l-7 9-4 7-3 3-7 15h-1l1-7 8-16 7-11z" fill="#2A234B"/>
<path transform="translate(603,761)" d="m0 0 10 2 2 2h-4v2h-2v2l-10 4-7 4-2-1 9-9z" fill="#F1F5FB"/>
<path transform="translate(309,944)" d="m0 0 25 4 33 1-2 2h-32l-25-5z" fill="#97C3F4"/>
<path transform="translate(666,660)" d="m0 0 19 4 11 2 1 4h-8l-9-2-13-5z" fill="#1A1A3E"/>
<path transform="translate(1183,582)" d="m0 0 16 3v2h-4l-1 13h-2l-9-16z" fill="#F2F4FA"/>
<path transform="translate(390,907)" d="m0 0h11l6 5v11l-3 2 1-9-4-5-2-1h-10l-5 5h-2l-2 5-6 14-1-4 5-12 8-9z" fill="#895A9C"/>
<path transform="translate(1021,789)" d="m0 0 7 5v14l-1 12-3-3-1-8v-12l-2-5z" fill="#F3F6FA"/>
<path transform="translate(810,707)" d="m0 0h8l8 4 1 2-5-2-2-1h-9l-6 3-7 8-1 3v8l2 8-3-2-1-3v-14l5-8 7-5z" fill="#2E2D50"/>
<path transform="translate(370,439)" d="m0 0h8l-3 6 5 2-2 5v5h2l-1 3h-3l-2-4 1-8-5 1-1-8z" fill="#824994"/>
<path transform="translate(1e3 603)" d="m0 0h5v2l-33 10-2 1h-6l1-2z" fill="#8AB3EC"/>
<path transform="translate(1174,483)" d="m0 0h4l1 5-3 9-4 1-3-5-6-3 2-2 5 1 3-2z" fill="#EBD7E0"/>
<path transform="translate(1119,943)" d="m0 0 3 1-15 7-30 10-7 1 3-3 26-8z" fill="#95B1E5"/>
<path transform="translate(1062,358)" d="m0 0 4 1-12 6-6 7-2 4v14l-3-3v-11l4-9 5-5 6-3z" fill="#EDF2F9"/>
<path transform="translate(375,934)" d="m0 0 4 4h8l-1 3-12 5h-3l1-9z" fill="#F5F5F9"/>
<path transform="translate(928,453)" d="m0 0h5l-5 5-9 5-9 2-2-2 8-5 10-4z" fill="#EDEEF6"/>
<path transform="translate(475,381)" d="m0 0 5 1 5 7v3l5 1-5 10-2-3-1-3 1-2-4-5-4-7z" fill="#EEF2F9"/>
<path transform="translate(505,619)" d="m0 0 9 2 12 3 10 1-1 4h-7l-16-4 1-2-8-3z" fill="#2A294C"/>
<path transform="translate(370,941)" d="m0 0h1v5l11-4h2v2l-13 4-1 6v23l1 7-2-2-2-6v-28h2z" fill="#90ACE4"/>
<path transform="translate(906,573)" d="m0 0 3 1 5 12v22h-1v-18h-2l-5-10v-3l-2-1h2z" fill="#262248"/>
<path transform="translate(587,232)" d="m0 0h3l-1 9-1 10h-3l-3-5 1-5z" fill="#342455"/>
<path transform="translate(431,498)" d="m0 0 5 1v2l-9 4-10 5-4-2 5-4z" fill="#302B51"/>
<path transform="translate(384,408)" d="m0 0 11 1 2 4-1 2h-14l1-6z" fill="#FDBAC5"/>
<path transform="translate(1031,855)" d="m0 0h15v1l-7 1 5 2 5 3 2-3-1 5-9-1-9-4z" fill="#F8EDF1"/>
<path transform="translate(506,537)" d="m0 0 2 1 1 8-4 15-1-4 2-6h-2l-1 7h-1l1-13 2-7z" fill="#2E2D50"/>
<path transform="translate(874,673)" d="m0 0 5 1v1l-9 2-8 7-3 6-1 12-2-2v-10l5-10 9-6z" fill="#2E2D50"/>
<path transform="translate(865,556)" d="m0 0 12 4 8 4 2 2-1 3-15-7-9-3z" fill="#474565"/>
<path transform="translate(385,439)" d="m0 0h6l10 4v3h-10l-3-1v-2h-4z" fill="#FDDCE4"/>
<path transform="translate(376,418)" d="m0 0 12 1-1 5-5 2-6-2-1-5z" fill="#FDABBA"/>
<path transform="translate(590,546)" d="m0 0 9 1 2 2-1 4h-3l-2 4-3-1-3-6z" fill="#494767"/>
<path transform="translate(399,448)" d="m0 0 2 1-1 5-5 3h-7l-1-4 2-2 6 1v-3z" fill="#FDD9E2"/>
<path transform="translate(888,938)" d="m0 0 6 2 8 4 16 6 2 3-7-1-25-12z" fill="#98B2E7"/>
<path transform="translate(226,922)" d="m0 0 13 2 24 6 1 2-9-1-20-5-11-2z" fill="#9BCDFD"/>
<path transform="translate(943,708)" d="m0 0h1l1 11-2 10h-2v11h-1v-15l1-14z" fill="#F4F0F4"/>
<path transform="translate(404,515)" d="m0 0m-2 1h2l-2 4-6 7-5 2v2l-3-1 1-5 4-5 2 1h3v-2z" fill="#342C55"/>
<path transform="translate(1027,854)" d="m0 0h23v8l-2 1-5-4-5-2v-1l-11-1z" fill="#FEBAC0"/>
<path transform="translate(423,599)" d="m0 0 13 2 8 3-1 2-16-2-7-2 3-1z" fill="#2E2D50"/>
<path transform="translate(920,414)" d="m0 0h1v36l3 1-5 1v-31z" fill="#2E2D50"/>
<path transform="translate(502,365)" d="m0 0h1l2 18 3 9 2 5 4 2-3 1-5-2-3-10-1-9z" fill="#FDFDFD"/>
<path transform="translate(1007,856)" d="m0 0h5l-2 2-15 6-7 5h-2v11l-2-1-1-8 5-6 16-8z" fill="#EDE6EC"/>
<path transform="translate(1096,878)" d="m0 0h17l9 3v1h-20l-1-1-13-1v-1z" fill="#392856"/>
<path transform="translate(800,663)" d="m0 0 3 4 1 5v8l-2 5-3 1z" fill="#2B2A4D"/>
<path transform="translate(391,427)" d="m0 0 4 1 1 4-9 4h-4l1-4 3-3z" fill="#FDD4DD"/>
<path transform="translate(1039,593)" d="m0 0h6l-1 2-23 6h-5v-2z" fill="#8AACE6"/>
<path transform="translate(552,494)" d="m0 0 2 3 2 9 5 5v2l-9-1-1-4z" fill="#EFEEF4"/>
<path transform="translate(396,497)" d="m0 0h1v17l-4 7h-3v-5l5-10z" fill="#F8F6F8"/>
<path transform="translate(483,627)" d="m0 0 3 2v9l-2 8h-2l-1-8v-9z" fill="#28284B"/>
<path transform="translate(1216,861)" d="m0 0 1 2-1 2 7 1v1l-10 1-5 7v-3l1-4-2-1 1-2-5-1 4-1 8 1z" fill="#9891C1"/>
<path transform="translate(583,310)" d="m0 0 6 2 1 2-3 1h-10l-7-1 1-2z" fill="#FBFAFB"/>
<path transform="translate(504,551)" d="m0 0h2l-3 17-1 4h-3l1-10 1-4h2z" fill="#222245"/>
<path transform="translate(679,873)" d="m0 0h5l-2 2-20 7-8 4-2-1 6-4z" fill="#96C8F9"/>
<path transform="translate(546,483)" d="m0 0h2l4 13v12h-1l-1-10-3-5-2-7z" fill="#332B53"/>
<path transform="translate(381,447)" d="m0 0h5v5l-5 4-4-1 1-5z" fill="#FDD7DF"/>
<path transform="translate(966,964)" d="m0 0 20 2 2 1v2l-14-1-11-2z" fill="#99CDFD"/>
<path transform="translate(1283,825)" d="m0 0 4 2 5 6 3 7-1 8-5 6v-3l3-4v-8l-3-6z" fill="#C176A2"/>
<path transform="translate(409,590)" d="m0 0 1 4 5 2 8 3v2h-7l-7-3z" fill="#252548"/>
<path transform="translate(372,402)" d="m0 0h2l1 2v11h-5v-7z" fill="#FDE2E9"/>
<path transform="translate(412,432)" d="m0 0h4v5l-4 5h-5l1-4 3-3z" fill="#FDE6EA"/>
<path transform="translate(641,708)" d="m0 0 11 2 1 4-8-1-8-3z" fill="#ADCBF3"/>
<path transform="translate(829,619)" d="m0 0 2 1-6 5-2 3h-2l-2 7v13l-2-2v-13l5-9 5-4z" fill="#2E2D50"/>
<path transform="translate(401,417)" d="m0 0 3 1 1 2v6l-5 1-2-4z" fill="#FEADBA"/>
<path transform="translate(942,959)" d="m0 0 9 1 14 3 1 2h-7l-16-4z" fill="#92AAE1"/>
<path transform="translate(894,684)" d="m0 0 4 4 3 5v9l-4 1v-9z" fill="#2A294C"/>
<path transform="translate(1233,522)" d="m0 0h2v6l-3 1h-8v-4h7v-2z" fill="#FE7AA5"/>
<path transform="translate(1099,859)" d="m0 0h17v1l-6 1 3 3v2l-5-2-2-1-10-1z" fill="#F4BFCF"/>
<path transform="translate(1113,372)" d="m0 0 5 5v12l-3 1-1-13z" fill="#322D53"/>
<path transform="translate(336,584)" d="m0 0 3 4 1 4-1 1h-5l-2-3v-5z" fill="#EFE7EC"/>
<path transform="translate(1e3 875)" d="m0 0h32v1l-23 1-5 1h-8l1-2z" fill="#2E2D50"/>
<path transform="translate(1400,718)" d="m0 0h4l-2 4-8 5h-3l1-4 5-3z" fill="#884FB0"/>
<path transform="translate(982,609)" d="m0 0 5 1-3 2-12 4h-6l1-2z" fill="#8AABE5"/>
<path transform="translate(411,413)" d="m0 0h3l1 7-3 4h-3v-6z" fill="#FDDEE2"/>
<path transform="translate(389,396)" d="m0 0h4v10l-5-1v-8z" fill="#FDECEE"/>
<path transform="translate(1405,722)" d="m0 0 4 1-1 7-2 4h-4l1-4 1-1z" fill="#7C479E"/>
<path transform="translate(724,660)" d="m0 0h7l1 4-1 5-3-1-2-3-2 1z" fill="#322D53"/>
<path transform="translate(1367,754)" d="m0 0h2l1 3h6l1 3-8 1-3 2h-3v-3l4-2z" fill="#78459A"/>
<path transform="translate(1388,740)" d="m0 0 3 1-1 5-5 6h-4l2-4 3-3z" fill="#804BA7"/>
<path transform="translate(376,547)" d="m0 0v3l-8 17h-1l1-7 5-11z" fill="#241E45"/>
<path transform="translate(1222,482)" d="m0 0 8 1 1 4h-11l-2-1 1-3z" fill="#FE78A4"/>
<path transform="translate(1395,749)" d="m0 0 9 2 1 3-4 1-4-2-5 1 1-4z" fill="#874DAC"/>
<path transform="translate(739,763)" d="m0 0v3l-7 8-5 4-6 2 3-3 8-7 5-5z" fill="#2E2D50"/>
<path transform="translate(1198,522)" d="m0 0h13l-2 4h-9z" fill="#FA76A3"/>
<path transform="translate(1224,512)" d="m0 0h2l1 4 7-1 2 3-3 1-10-2v-4z" fill="#FB78A4"/>
<path transform="translate(1224,502)" d="m0 0h6l-1 4-9 3v-4z" fill="#FE78A4"/>
<path transform="translate(370,400)" d="m0 0h2l-1 8-2 9h-2v-8z" fill="#724090"/>
<path transform="translate(1376,728)" d="m0 0 7 1 1 5h-5l-1 3z" fill="#D6A7C2"/>
<path transform="translate(1402,698)" d="m0 0 5 1v5h2l-2 5h-3v-6l-2-2z" fill="#794A9D"/>
<path transform="translate(847,553)" d="m0 0 10 1v2l3 2-19-2 4-2z" fill="#484666"/>
<path transform="translate(366,411)" d="m0 0h1v6h2l3 4v2l-4-1v11h-2z" fill="#C06AA9"/>
<path transform="translate(398,908)" d="m0 0 7 2 2 2v11l-3 2 1-9-4-5z" fill="#7E5889"/>
<path transform="translate(859,639)" d="m0 0 2 2v10l-4 6h-2l2-5z" fill="#1E1E42"/>
<path transform="translate(390,434)" d="m0 0h3l1 4-8 1-5 1 2-4z" fill="#733F93"/>
<path transform="translate(220,756)" d="m0 0 3 1-1 5-2 4h-4l1-4z" fill="#9F65CB"/>
<path transform="translate(1385,713)" d="m0 0 5 1-4 10-2-1v-8z" fill="#814BA6"/>
<path transform="translate(969,436)" d="m0 0 4 1-2 3-9 2h-5l2-2z" fill="#E4E7F4"/>
<path transform="translate(385,377)" d="m0 0h2l-2 4-7 8-3 3 1-5 7-8z" fill="#834C9A"/>
<path transform="translate(1223,857)" d="m0 0 12 3 1 2h-15l1-4z" fill="#F5E8EA"/>
<path transform="translate(406,403)" d="m0 0h3l-1 6-2 3h-3l1-7z" fill="#FDDFE5"/>
<path transform="translate(230,747)" d="m0 0 3 1-1 10-4-1 1-9z" fill="#955BC1"/>
<path transform="translate(257,761)" d="m0 0 4 1 2 3v4l-7 1v-2h2z" fill="#8394D5"/>
<path transform="translate(243,752)" d="m0 0 10 2v4h-2v-3l-8 2-2-3z" fill="#9459BF"/>
<path transform="translate(1212,493)" d="m0 0h8l2 4h-4v-2l-3 2-4-1z" fill="#FE78A4"/>
<path transform="translate(656,814)" d="m0 0 3 4v4h-8l3-6h2z" fill="#F5E8EA"/>
<path transform="translate(203,763)" d="m0 0h3l4 7v2h-4l-3-4z" fill="#9256B8"/>
<path transform="translate(697,660)" d="m0 0 4 1v10l-3-2z" fill="#1E1C41"/>
<path transform="translate(1203,531)" d="m0 0 4 2 3 4v4h-3l-2-5-3-2z" fill="#FE78A4"/>
<path transform="translate(403,430)" d="m0 0 4 1 2 2v3h-6l-2-4z" fill="#FDD1DB"/>
<path transform="translate(497,397)" d="m0 0 7 1 9 4-2 2-14-5z" fill="#9ACAFB"/>
<path transform="translate(405,512)" d="m0 0h2l-1 3-6 4h-2v2l-4 2 2-5z" fill="#252047"/>
<path transform="translate(1249,505)" d="m0 0h3l-1 5-4 4h-3l2-4z" fill="#EB72A8"/>
<path transform="translate(1068,960)" d="m0 0 3 1-2 2-9 2h-6l2-2z" fill="#98CCFD"/>
<path transform="translate(1141,932)" d="m0 0 2 1-15 9-4-1z" fill="#9A9FD3"/>
<path transform="translate(585,232)" d="m0 0 1 4-5 10h-1v-5l2-5z" fill="#FAF6F8"/>
<path transform="translate(1395,731)" d="m0 0 3 1v8l-4-1v-6z" fill="#8D58B8"/>
<path transform="translate(1389,688)" d="m0 0 4 1 1 8-3-1-3-6z" fill="#824EA4"/>
<path transform="translate(1056,393)" d="m0 0h6l-1 19h-1l-1-17h-3z" fill="#BEDCFA"/>
<path transform="translate(1241,477)" d="m0 0h4l-3 9-3-1 1-7z" fill="#FE78A4"/>
<path transform="translate(371,448)" d="m0 0h4l-1 8-4-2-1-2z" fill="#FDDDE1"/>
<path transform="translate(1106,860)" d="m0 0 9 1v2h3v3h-5l-1-3-6-2z" fill="#FAF6F6"/>
<path transform="translate(224,736)" d="m0 0h3l-2 4-3 2h-5l1-3z" fill="#6B3C87"/>
<path transform="translate(1039,593)" d="m0 0h6l-1 2-7 2h-6v-2z" fill="#8ABEF6"/>
<path transform="translate(493,605)" d="m0 0 4 5 4 6-1 2-5-4-2-4z" fill="#201F43"/>
<path transform="translate(1208,477)" d="m0 0 2 1-1 10h-3l1-10z" fill="#B45C9C"/>
<path transform="translate(1226,469)" d="m0 0 2 1 1 8-4 1v-9z" fill="#F975A3"/>
<path transform="translate(370,941)" d="m0 0h1v5l11-4h2v2l-13 4h-2z" fill="#B980B2"/>
<path transform="translate(271,775)" d="m0 0h3l-1 6-2 2-4-1 3-4z" fill="#955BC0"/>
<path transform="translate(376,451)" d="m0 0 2 4v2h2l-1 3h-3l-2-4 1-4z" fill="#653773"/>
<path transform="translate(405,447)" d="m0 0h6l-1 4-4 2z" fill="#FDD2D9"/>
<path transform="translate(1115,861)" d="m0 0h5v6l4 1-10-1 4-1v-3h-3z" fill="#EDA8BB"/>
<path transform="translate(1384,699)" d="m0 0 5 1 2 4-2 1-5-2z" fill="#8350AC"/>
<path transform="translate(1219,521)" d="m0 0h3v2l-5 5-3-1 2-4z" fill="#FE78A4"/>
<path transform="translate(271,757)" d="m0 0h1v6l-3 4h-2l3-9z" fill="#9F63CD"/>
<path transform="translate(766,655)" d="m0 0v3l-4 7-2 3v-6l4-6z" fill="#2E2D50"/>
<path transform="translate(230,607)" d="m0 0 4 2 6 6v2l-4-2-6-7z" fill="#93CAFD"/>
<path transform="translate(429,499)" d="m0 0 4 1-11 6-3-1 4-2 1-2z" fill="#221D44"/>
<path transform="translate(1248,487)" d="m0 0 2 1-1 6-2 2-3-1z" fill="#F979A4"/>
<path transform="translate(376,439)" d="m0 0h2l-2 4v3 1h-5l1-4h2v-3z" fill="#48235F"/>
<path transform="translate(558,436)" d="m0 0 2 1v10l-2 3-1-13z" fill="#FCFAFA"/>
<path transform="translate(1119,379)" d="m0 0h1l1 13-3 1v-8z" fill="#FBF9FA"/>
</svg>
